<svg xmlns="http://www.w3.org/2000/svg" viewBox="0 0 646.14 836.84"><defs><style>.cls-1{fill:#fff;}</style></defs><title>Asset 4</title><g id="Layer_2"><g id="Layer_1-2"><path d="M634.54 212.52c-7.7-.5-3.18.23 0 3.86 12.17-18.4 16.44-198.22.57-211-12.7-10.23-76.6 0-92.35 0H371.37c-108.5 0-225.3-12.1-333.22 0-12.56 1.4-27.76-3.6-34 3.95-9.35 11.32 0 69.75 0 83.82v668.18c0 57.37-10.67 69.17 46.26 72.58 108.08 6.48 218.54 0 326.8 0h188c13.63 0 64.9 7.32 73.55-1.2 16.56-16.28 0-133.73 0-157V534.24c-1.2 1.9-12.57 23.16-15.56 19.83-3.93-9.14-1.15-2.7-4.76-7.64 8.76-15.83 19.43-35.54 20.32-53.33-8.4 2-40.78 53.87-47.8 62.45-8.06 9.84-32.66 33.5-32.85 32.35-5.7 12.27-1.5 12.32-11 25.5 11 1 18.54-19.5 25.78-22.68 2 8-12.85 24.35-13.68 17.87-6 8.5-24.87 30.87-25.88 21.6-1.26 3.16-21 50.66-10.57 50.66q-3.06-5.47.9-8.36a28.2 28.2 0 0 1 1.37 7.6c2.34-1.34 11.53-12.88 11.6-12.95.94 10.4-7.62 14.6-12.4 23C534 685.4 544 714.05 545 713.63c3.55-1.64 1.24-11 4.8-11.14 5 10.7 2.1 20.8 21 32-1-.1-12.4-3.07-13.4-1.94 14.36 6.4 31.83 41.1 43.8 51.88-2.82.84.85 1.7-2.6 5.4-20.1-30.6-53.07-68.83-76.3-97.67-1.66 21.6 13.33 57.55 26.14 66.54-40.3 7-34.66-72.46-40.67-80.8 2.46-2.66 4.35 5.93 9.8.9-5.87-5.64 2.7-17.2 2.13-23.3.07.77-4.4 4.68-6.65 4.86 7.36-12.4 18.28-50.4 9.24-52.55-8.5 14-21.23 33.5-23 44 5.17 2.54-1-8.92 6.13.3-2.65 6.46-15 19.67-17.8 16.46 1.88 15.72 5.08 19.82 5.08 35.75a12.66 12.66 0 0 1-2.76-12.7c9.2.8-23.1 4.66-11.3.28-3.9 1.45 6.38 9.18-.33 11.55-.67-1.62-3.14-.3-6.13-4.14 2.05-14.07 1.58 2.2 5.05-2.5-6.55-9.6-4.1-12.93-.53-20.54a7.53 7.53 0 0 1 1.82 3.16c3.85-1.52 0-24.08-2.74-28-5.55 3.1-10.43 5.57-11.43 9.2q1.6 1.18 3.18-.9c0 3.4-12.24 19.33-13.75 22.45q-.8-4.22-3.36-3c13.84-11.33 5-25.3 19-27.86q-5.4-7.1.8-12-3.5 5 1.34 2.25c-2.47-47.12-29.55-2.24-35.42 19.12-13.28-23.2 36.8-54.5 33.1-72.16-2.94-.4-2.32 23.64-3.76-7.92 3.67 6.76 2.4 2.3 5.55 9.53 12.5-12.72 34.93-28.56 39.2-46.43-11.42 6.75-23.37 10.53-35.25 16.95q-5-3.9 3.67-9.7c-8.75 3.2-11.3 12.57-14.1 21.4q.95-8.1-8.45-1.7A28.64 28.64 0 0 1 467.6 554c-5-.76-16.15 1.6-17.72-5.64 7.7 3.43 28.85-7.6 30.2-6.57-1.86-3.76-26.82-1-26.5-4.72 8-.58 17.93 2 20.12-6.05 2.36.6 48.2-24.8 47.32-39.37-9.43 4.38 16.77-20.4 23.17-25.94q2.4 1.38-.8 4c5.22-5.45 35.56-48.14 44.74-44.32q-5.16 1.55 3.13 4c-1.07 5.35-1.43.66-5 2.25 6.68 7.35 4.9 7 .77 20.68 2.47 2.1 24-33.12 24.2-34-8.3 5.14 3.52-10.64 3.6-10.6 7.82 4.8-23.23 56.18-25.32 64.1 2.9-2.62 10.84-19.12 12.48-18.35q-8.88 6.9-5 13c24.84-15.37 22.5-51 39-54.2-1 9.17-9.35 30-15.3 45.4 21.32-14.36 18.08-22.6 18.08-54.5a9.8 9.8 0 0 1-2.2 8.1c-3.52-6.17-3.3-25-1.5-24.86q-2.38 3.35 3.7 3.84c-7.1-28 4.2-68.6-1.37-104.22-1.4-8.95-15.26-54.73-19.45-49.57 1-19.76 15.92 10.1 15.56 9.16q7.94 6.08-1.87 6.6c1.32 1.37 5.7 10.3 7.16 11.1.92-10 0-31.63 0-32.9-4.6-4.87-16.56-16.16-18.3-16-3.3.22-1.82 12.93 4.27 10.6a9.22 9.22 0 0 1-9.13 2.76c-5.72-2.87 1.9-13.67 1.3-14.82-3-5.6-7.4 5.75-6.77-5.3-8.22.96.84 13.06-13.17 8.5q2.36-2.75 4.62-.37c-5.22-4.5-12.62-35.9-10.62-43.1-1.56-.1-13.2.22-13.23.22 2.42 5.34 7 8.82 7.4 12.63-2.54.86-12.32 3.78-5.84-4.26-7.74 2.36-5.64 3.33-13.07 7 4.78 3.47 16.5 26.72 7.9 28.35-14.32-9.73-8.8-13-19.26-8.17 4.08-21.86-30.4-15.23-30.67-12.86 9.08 1.63-26.75 9.53-33 8.8q3.63 4.24 8.42.37c.24-1-29.64.08-34.14-.15.1-3.9.1-7 2.38-7.8-10.18-3.33-38.3 5.63-48 5.63 3.88 8.7-3.45 3.94 2.1 7.78-15.93 2.27-16.82 2.34-27.46 8.18 8.82 10.36 33.4 31.06 38.3 21 2.22 2.8 6.14 17 10.25 6.24-9.6 3.5 10.67 1.3 6.9-3-4.15-4.7-19.47-5.44-25.38-3.3q3.37-4.64 9.63-4.25c-.78-3.82-9.66 3.6.65-4.1-6.25-4.3-10.54-2.76-5.44-9.82-6.3-.23-10.32 4.48-17.9-5.78 3.35-3.77 8.47-3 13.5-2.2q-4.87 2.05 1.2 6.46c2.63-1.75-3.2-4-.4-5.6 4.46 7 35.95 17.6 43.87 13.72-.14 2-12.38-18.74-11.93-19.27 4.73 4.13 11.27 8.64 15.77 3.34q-6.34-5.47-13.63-3.7c-.88 2.7 66.62 12.4 73 15.12-1.27 1.33-29.18 12.27-29.77 14.07 10.62.8 24.84-.08 5.26 2.9 11.06 7.07 18.35-1.67 20.7-2.6 1 2 3.34 3.7 3.77 4.93-33.08 14.4 6.53-2.42-19.12 4.7 5.5 10.77 12.9-.9 18.6-.2.25 6.5-1.27 2.78-5.74 3.87 6.4 8.17 13-1.87 22.88.45 1-8.72-11.38-5.15-15.74-4.53 5.22-9.6 32.18-6.5 34-5.83-.53-6.5 15.74-7.23 23.7-15-.58-1.38-6.26-7.3-7.6-7.9 1.37-2.62 40.2 32.32 41 34.7-13.85 7.62-1.5-2.55-8.78-.9.54 8.25 4.9 8.7 4.28 13.3-6.3-.53-15.83-10.66-12.58-17.2a18.34 18.34 0 0 0-4.75 4.5c-3.47-2.86-1.82-.78-5.7-4.22 8.1-3.7-1.1-8.6-.53-10.9q3.26 5.13 5.36 2.08c-9-3.38 9.06 2.6-3.2-9.37-6.54 9.5-44.5 10.4-46.33 26.9 11.24-1.7 17.56-8.62 26.88-11.05 2.2 4.62 12.06 22.18 18.9 24.3-.35-1-3.45-8.1.35-8.74 3.43 9.93 13.1 15.3 18.58 29.84-14.05-3.57-13.4 1.7-7.77 6.22 12.93 10.36-9.3 39.84 18 36.2-9 9.58-8.74 21.08-15.2 31 7.06-.46 8.4 4.94 4 9.7-1.42-6.83-7.62 6-.4 8q-1.5-2.2.22-2.53c5.36 4.36-9.45 16.5-2.83 24.6-6-7.3-6-22-7.28-33.8-48.4 15.17-25.13 1.93-63.28-15.7-13.48-6.23-38.1-3-46.5 3.84-6.7-7.57-7.1-3.2-26.92 1.67-2.4-16.05 20.24 6.24-1.22-18.3 14.66.45 21.75 5.62 40.28-1.13-4.83-1-32.6-5.06-32.65-5.28 1.07-.55 14.82-3.12 12.1-7.66q-3.9 3.95-10.26 2.95-.88-2.42 3.15-1.45-6.14-3.8-1.7-6c-11.6 0-28.5 7-34.67-8.26 0 0 12.5 16.67 15.52 19.2-7.66-1.14-27.12-15.86-18.52-22.23-6.2 1.3-17.2-7.75-8.23-5q-.6-7.12-8.36-7c2.3-5.1 18.4 3.8 19.25 3.84-1.92-2.4-13.16-8.17-15.9-13.72 1-.7 15.6-10.95 4.5-1.05-.53 0 9.53-9.82 9.55-10.26 0-1-15.25-3.67-15.64-3.5.35.74 1.8 7 2.44 6.35a13.33 13.33 0 0 1-4.42.6c3.6-13.77-20.4-19.18-23.08-18.58-1.3-5.8-13.3-22.2-11-7.84-3.26-2.76-9.87-12.63-1.87-9.4-4.33-5.33-.72-5.08-7.57-9.75 7-12.77.95 2.46 10.22-.9-2.3-7.36-4.9-14.6 0-5.36-9-.38 8.4-6.6 6.57-5.87-5.54-6.52-9.72-.86-16.3-8.3-2.85-3.2 13.2-9.45 17.16-3 .87-3.3-3.5-7.2-2.5-8.85 6.14 2.24 13 1.73 19.82 2.18-14.2-13.28-24.84 4-36.76-5.8-1.55 9.6-2.5 7.1-12.1 8.88.23-4.74 15-5.9 9-11-5.1 1.33-17.64 12.83-14.53 12.06-5.68 1.4-4.24-7.22-3.64-11 12.34-6.78 14.67-15.32 24.13-14.8.95 8.24-1.4 5.08-2.68 14.13 5.5.65 16.16-4.47 25.94-4.2-1.64-2.6 4.5-4.5 8-4.63a6.16 6.16 0 0 1-2 3.33c-4.65.33 22.9-7.65 21.9-7.3.66 2.2-17.86-9.7-17-8.92-.77 4.2-50.1 6.74-49.66 3.33 3.25 4.32 11.06-2 6.32 4.63-7.23.16-14.1 8.16-26.78 7.58.35-4 14.23-7.36 11-13.4-19.08 2.4-20.9 23.54-3.5 20.94-7.63 7.36-14.6 2.52-22.13-.8 5.45-11.22-12.44 15.3-9.68 11.54-3.3-10.44 24.88-27.28 19.5-37.8-9.44 4.5-15.53-.2-27.07 3.8-19.4 6.74-34.47 42.68-48.28 42.06a12.76 12.76 0 0 0 3.5-9.33c2.6 14.38 6.08-15.83 6-15.73 4.26 2.94 29.9-15.86 24.8-28-6.37 1.62-11.6 7.27-18.22 2.55 2.43-2.6 8.68-1.74 9.75-6.3-4.7 3.5-3.44 2.2-2-4.43-8 4.08 4.7 1.9-8.82 6a25.1 25.1 0 0 1 6.22-11.8c.13-1 26.36-12.72 37.44-17.33 1.57 4.23-8.1 2.3-2.46 10.6 1.12-7.28 5.8-8.44 4.75-11.27-.95.44 15-4.62 11.37-5-.2-1.9-9.52-2.22-11.45-.3 7.76-1-11.88 9.2-18.16 5.55 10.83-5.4 9.58-7.5 17.34-16.55.6 6.95-.22 3.88-4.34 10.46-1.5-.48 42.73-4.26 41.83-4q-4.65-.6-3.24-4.87 4.8 5.42 12.64 3.05-3.42-1.55-3.1.55c-4.4-6.3 21.15-5.85 23-5.22a18 18 0 0 1-3.82-6.38c5.5 4.36 7.8 4.2 11.92 6.13.28-.5 2.06-8.1 3.87-.72-3.72 2-4.07-19.34.93-9.38-9.62-3.65 29.28-1.9 36.44-4.4a25 25 0 0 1-4.23 7.8c-.35-1.64-11.1-.4-18.28 6.34 12.43 6.33 40.6-.1 54.24-1.92-1.4-3.46-8.84-2.6-13.43-2.6-.46-.73-11.88-16.5-12.3-15.05 12.1 5.65 32.9 14.7 24.3 22.75 2.2 5.2 9.1-1.3 6.35-4.3 19.14-8.2 80 6.12 101.23 18.55q-1.57 5.66-9.65-.68c3.08 10.1 1.94 7.32 9.47 14.06q-2.35-4.5.72-5.3c9 14.14 22.43 23.57 32.82 28.45.23 3.5-5.84-.58-4.48 5 4-2.45 1.56-1.9 7.8-1.85-2.26 3-13.2 20.54.75 15.86-7 6.9 18.5 21.85 17 21.75zm-7.16 604.06c4.33 12.26-.14.5 0 0 .7 1.97-.38 1.33 0 0zm-20.14-24.17c-12.33-6.57 4.8-5.87 0 0-.62-.32.2-.24 0 0zm10.7-252.47c2.63 2.4-8.13 10.05 0 0 2.06 1.88-1 1.24 0 0zm-26.57 30.6a84.53 84.53 0 0 0 8.1-7.18c7 14.47-16.7 11.5-8.1 7.17zm-7 5.05c3.8-4.32-4.44 9.86-8.43 12.17l8.43-12.17zm-18.78 38.58c6.6 2 1.6-10.5 7.76-5.93 12.64 9.3-18.28 7.47-7.73 5.92zm-3.84 8.2c-.85-5.23 16.9-5.58-.82 9.92-2.1-1.9-4.23-6.6.82-9.93-.15-1.13-1.44.96.04 0zm-4.86 6.1c2.27 1.85 1.55 7.9-1.08 9-2.07-4.18-1.92-5.46 1.12-9zM528.2 668zm1.42-9.83zm5.67-12.32c-.17.17-3.16 13.67-1.6 11.9-11.6-11 2.9-12.36 7.42-18.22 3.77 4.34-1.77 8.16-5.83 6.32-.98 1 1.36.6-.02-.02zm3.8 12.15c3.1.35 6.76 9.78 0 0 1.5.2 1.62 2.36 0 0zm7.07 25.55zm-1.54-5.12Q539 673.27 541 667c10.78 7.2 13.68 8.8 3.6 11.44 1.06-3.9 1.64-.44.03 0zm5.27 24c-10.8-19.3 7.6-2.7 0 0-1.55-2.8 1.96-.72 0-.03zm3.42-17.08c6.14-1.2-3.73 10.72 0 0 .33-.1-.52 1.46 0-.03zm1.66-19.9zm7.02-14.2c-16.72 4.36 8.25 3.57-7.12-4.8-4.6 3.35-5.23 4.95-7.3 12.9-16-7.7 16.35-17.4 10.4-14-1.45-4.06-5.83-5.35-8.84-8.34-2.88 5 20.7-5.46 16-4.85-.13-.8-5.8 19.76-3.1 19.05zm3.23-6.17c-6.25-2.92 9.4-19.6 11.92-23.6a52.26 52.26 0 0 1-11.92 23.6c-.88-.42 5.85-6.94.04 0zm25.12-42.54c-2.8 4.6-7.5 16.83-14.34 16.36 1.07-2.1 18.52-23.15 14.35-16.36zm-.24-15c.26-1.12 8.9-.53 0 0zm3 9.6c-1.73-4.8 4.14-7.2 0 0-.37-1.07.75-1.2.03.04zm2.47-4.77c4.78 7.78.9-21.28-1.4-12.32 1.13-4.42 4.2-5 6.43.3 4.1-6.75 5.18-18.15 7.8-24.48q-2.56-1.82-4.57 2.6c-7.28-10.16 15.84-13.5 15.46-8.73-.4 4.94-9.54 5.27-6.36 12.2a6.86 6.86 0 0 1 5.7-5.1c.53 9.07-17.66 28.86-23.08 35.53-1.82-2.97 2.88-3.47.03.04zm-89.5 149.14l-1.8-4.5c3.06 1.57 3.54 2.86 1.82 4.55zm-4.32-28.5zm-5-23.6l2.4 6.77c-3.37-1.5-3.88-2.9-2.44-6.77zM493 676.73l1.64-11c10.67 4.76 1.92 8.67-1.64 11 .6-4.07 1.05-.73 0 0zm-15-6c-1 1.65-.64 4.27-3.72 4.7.93-2 .45-4.77 3.72-4.7zM469.4 626zm-11.75 10.44c2.33 2.8 1.73 17-2.63 15.85l2.63-15.86c1.03 1.25-.93 5.56 0 0zm147.2-184.3c-7-6.1 3.93-11.3 8.3-9.44l-8.3 9.44c-.23-.2 4.44-1.54 0 0zm-196.54-226c-7.57-11.24.5-.32 0 0zm12.5 3.7c6.45 4 5.24-4.5 9.37 5.64-1.88 1.58-13.74-2.6-9.38-5.65 1.97 1.3-.32.26-.02.05zm-8.7-7.2c1.16-.4 3.6 10.26 0 0 .25-.05.3.98-.02.03zm113.58-10.57c-6.17 10.14-20.38-.13-22.18-4.74 7.56 0 22.2 4.7 22.18 4.74zm39.92 20l-26.2 3c-2.86-4.4 26.28-7.22 26.2-3-8.74 1.03 0-.44 0 .03zm16.4-7.86c-1.57 1.86-7.46-6.25-7.83-7.47.78.56 6.83-1.92 8.82-1.1-13.22 5.47 5.92.45-1 8.58zm13.6-9.3l-5.52-4.84c3.84.2 5.82 1.94 5.48 4.83zm14.72 1.28c-.08 1.88.24 11.32-2.46 2.67-2.37-7.52 13.4-4.5 2.43-2.68zm8.2 50.8c3 1 3.78 2.4 2.82 5-1.34-1.46-3.95-1.92-2.85-4.98zm1.82 44.34c-6.8 8.07-2.17-7.12-2.13-7.23 2.1-5.46 3.7 5.34 2.14 7.22zm-3-11c4.52-6.75 11.07.76 0 0 .46-.65 2.03.17 0 .03zm6.93-29.67c-2.17-12.73 4.22-.9 0 0-.27-1.27 4.27-.9 0 .03zm.36 103.7c3.64-15.53 4.53-2 0 0 .63-2.64 1.54-.67 0 .02zm2.37-34.3c1.93-2.6 4.13-12.17 8.82-8.44-6.84.87-3 10.67-8.82 8.46.3-.34.62.22 0 0zm-4.48 15c5.3-1 4.7 8.9 2.66 11.8-1.86-2.95-5.5-11.22-2.62-11.76zM596.45 387q-7.38-.48 3.22-7.52c-4.65 13.23-1.9 15.07-3.22 7.52-.45-.12.67 3.83 0 0zm-3.54 22c-.77-7.5 3.62-.8 0 0-.1-1.15-.32 0 0 0zm-14.8 16.83c-6.44 2.07-11.22 5.92-18.13 3.77 12.86-6.2 12.7-2.6 18.13-3.8zm-12.77-39c1.37-3.84 17.3 25.5 9.3 27.7 2.67-11-13.62-15.6-9.3-27.7zm-8 35.48c2.45-.23 12.23-4.73 13-.34 1-.27-16.5 5.1-13 .35.67-.15-.33.25-.04-.08zm-124.1-143c4.6-3.24-10.26 5.64 0 0zM324 182.35c11-1.84 3.07 2.74 12.52-5.38-.64 5.5-12.78 11-12.52 5.38 2.08-.34 0 .3 0 0zM306.78 61.28c-1.44 11.72-4.12 2 0 0-.3 2.44-1.5.72 0 0zm-84.85 3.4c-4.37.27 29.78-10.52 41.8-5.3-.06.1-27.6 10.06-32.26 14.52-2.36-10.73-9.7-2.4-17.63-1.75a11.54 11.54 0 0 1 8.1-7.48c-1.35.08-2.7 2.82 0 0zm-31.8 9.05c6.38-1.7 23.53-5.34 20.8-7.58 3.4 2.8.7 10.68-2 12.06-1.7-6.6-5.53-8.4-8.76-1.57 4.18 2.2 7.1-14.9 2.5 5q-.84-3.45-4.38 0 3.74-4.26.1-6.44c.27-1.4-16.86 15.06-14.8 15.06-.86-6.2-1.55-14.42 6.54-16.58zm-5.6 33.9c.43-.93 12.8-16.86 17.25-13.17q-2.94 4.13-5.5 8.5c3.32-.73 13.22-10.8 12.5-2.7 6.74-2.12-1.7-9.84-5.12-10.7 4.54-5.77 10.2 1.48 15.12-4.68-9.85 1.33 7.76-11.3 9.33-13 5.84 1.4-14.1 23.92-13.7 23.24.1.15-42.2 61.95-55.52 60.5q1-2.58-.92-2.35c-.75 13.12 26.82-10.66 25.53-10.48-2.72-5.2-50.35 64.44-56.88 73.14 1.37-8.72 2.13-9-3.56-2.73 1.1 1.1 4.45 12.27-4.16 14-.26.06-2-9.68-2.32-13.5q4-1.07 1.7 6c6.82-2.22.58-7.66 5.66-12.9.7 1.33 9.74-15.4 4.42-20.3 10.53-4.5 8-5.56 7.52.14 10.14-10.84-5.44-3.1-3.36-3.1-2.08 0-2.35-8.27-2.2-9.54-.67 0 10.82 18.86 2.56-5.86a14.37 14.37 0 0 1 2.45 6.33c5.23-5 2.7-10.25 5.9-16.7 4.4 3.83 3.64 15.44-2 17.25 11.15 3.23 0-15.92 11.48-3 1.95-4.52 13.07-29.36 13.54-31.75-3.44-2.92-4.55.47-6.16-1.24 3.35-1.5.74-6.55 6.14-12.84 1.48 17 17.36-12.3 20.34-18.7zm43-15.68c-5.9 10.85-11-3.9 0 0-.33.62-.6-.2 0 .05zm-33.85 42.87q5-8 9.18-4.3c-2.1 5.07-14.45 18.63-18.8 10.64q14.65-.87 9.62-6.34c2.86-1.6.4.54 0 0zm6.45 63.57c-2.34 6.9-4.8 5.3-8.3 4.1 4.1-17.24 4.4-5.15 8.3-4.1-.95 2.8-2.33-.63 0 0zm-5.64 5.05c3.87 13.92-6.45 3.23 0 0 .5 1.77-2.72 1.36 0 0zm.07 81.12c4.88-.37 58.9-8.5 58.66-1.68-15.08 5.83-66.3 2.25-58.65 1.67zm13.37-106c7.83 3.13 10.6-10.84 13.65-15.76 2 1.17-1.26 3.46.87 4.43 4.46-13 6.78-9.38 12.3-15.17-1.64-1.8-2.06 1.82-4 .57a17.65 17.65 0 0 1 7.5-9c1.7 7.25 5.5 3.15 6.18 3.68-9.4 19.2-19.74 39.4-32.63 46.3q4-6.1-.1-6.47c-7.36 33.32.5 5.92-8.85 11 4.62-5.17 4.12-12.4 5.06-19.54 1.18.4-.63 4.85.02-.05zm42.68 23.55c.64.58-6.8 10.93 0 0zm2.33-65l-4.38 4c-1.04-1.9.77-3.9 4.43-4.03zm-1 132.4c.62 8.06-25-7.46 0 0 .05.23-3.2-1.02.05-.05zm9.06 37.32a69.46 69.46 0 0 1 12.43 3.84c-46.56 2.86-4.88-2.86-10.93 4.5-7.8-2.68-19.6-10.78-13.16-4.5-23.5 2.08-24.78-4.94-34 3.06-4.7-7-4.94-3-2.54-6.77.6-.94-12.26 1.34-9.23 1 .3.48 1.93 2.9 1.77 3.48-15-4.37 15.38-9.55 19.56-9.57a130 130 0 0 1 36.06 4.95zm-.3-26.74c2.63-5.8 8.54 2.62 0 0 .2-.4 1.08.28.04-.04zm-28.78 320.28l6.08-.48c-1.7 1.8-3.4 3.2-6.08.48zm8.57 22.68c-.62 4.15-13.63-1.44 0 0-.1.57-2.1-.22 0 0zM229 325q-5.46-3.2-4.44-8.54c-1 1.46 6.9-.76 6.82-.8-3.4 1 3.07 9.2 3.13 9-8.1-10.2 1.14 5.8 1.5 5.9q-.14-3.1 1.78-2.38Q237.54 342 229 325zm.38 275.4c-3.26-.7-3.63-3.35-5.1-5.87 5.6 1.83 5.96 2.25 5.06 5.82zm-10.43 8.05c-4.6 1-5.17-10.92 0 0-1.2.2-.95-1.98-.04-.04zm-10.17 23.73c1.24-.52-7.84-9.27 0 0-.97.36-1.62-1.9-.03-.04zm18 36.23c-7.93 2.8-14.07-3.3-11.56-10.7 3.6 1.7 27.22 10.63 24.1 14.15q-8.1 2.54-12.54-3.44c-1.18.37 1.03 1.04-.05-.03zm2.8 9.6c-4.46 10.06-5.72-.7 0 0-1 2.1-1.3-.2-.04 0zm-13.64-8.66c6.16 6 8.27 5.65 4.16 11.74q4.86-2.32 2.45 1.63c-9.2-2.6-14.14-20.72-6.6-13.35zm-26.7-46.38c-2-1.05-6.5-11.34-6.87-13.26 1.87-1 12.55 5.72 12.24 5.44q-7.52.75-5.37 7.82c-2.23-1.23-.05-2.2-.05-.04zm8.65-8.7c-2.23 8.6-6.9 6 0 0zm6.56 6.3c.53 2.24-2.14 3.46-7.9 3.44 1.96-2.54 5.44-1.66 7.85-3.48zm-4.64 7.86zm6.82 35.72c3 2.38 4.36 1.34 3.86 5.8-6.15 1.77-24.7-6.7-15.82-15.34a51.32 51.32 0 0 0 12 9.53zm3-17.2q-10.9-6.37-1.24-4.94c.32.24 10.58 7.14 1.24 4.93zm48.16-372.67q-6 2.75-9.86-1.24c2-4 8.86 1.46 9.86 1.24zm-22.3-110.1q-1.22-6.58 7-5.62a40.82 40.82 0 0 1-3.8 11.28q2.53.68-1.78 1 8.4-15.5-1.38-6.63c-.03-1.45 1.52-1.2-.13-.07zm7.1 53.56c2.27.6-1.07 11.72-3.92 12.22l3.9-12.22c.2.03-1.36 3.95-.08-.05zm.76-60.58c-.4-1.7 8.25-11.4 0 0-.8-3.15 1.25-1.9-.1-.05zm-9.87 18.37c-6.6 6.4-2.34-2.56 0 0-1.1.92-.26-.22-.1-.05zm-7 9.82c-9 11.5-3.2-.7 0 0-1.58 1.9-.9-.23-.07-.05zm-11 13.3zm-25.8 293.57q-.63 9.6-8.26-1.13c4.65-6 1.6 3.28 8.25 1.14-.48 1.67-4.28 1.4 0 0zM178.8 600.88c-2.9 3.3-6-14.57-4.93-17.74q10.84 8.56 4.92 17.74zm1.3 27.47C176 626 176 626 177.6 621.62zm-21.58-42.15c4.3-4.94 7.8 4 9.35 1.8a7.4 7.4 0 0 0-.8-9.2c-8.07 4.37-.9.76-2 7q-6.8-4.16-3.9-12.16c-.65 6.6 20.55 25-2.63 12.56.74-.9 1.57.8-.02-.02zm-11.84-72.6c-7.57-12.22-43.65-8.76-45.52-15.96 20.15-26.74 2.36 1.5 7.94-7.6 10.78 5 26.32 3.9 31.7 16 2.17-10 15 13.38 14.35 13.92l-8.47-6.35zm2.3 55.62c-2.52 9.85-3.64-.84 0 0-.35 1.37-.57-.14 0 0zm-10.35-52.52c-.3 3-46.34-7.34-41.16-6.1 10.37-9.06 33.08 5.7 41.15 6.1-.03.36-1.04-.06 0 0zm-18.32 17.2c3 1 16.66 6.54 18.6 8.6-11.7 1.4-21.36-9.58-18.6-8.6zm34.82 42.27q7 .74-.65 11.64-6.58-.56.65-11.63c.4.07-.9 3.83 0 0zm.58-82.68c-2.2-10.25 4.27-4.18 7.68-.12-1.33 1.5-7.78-.47-7.66.1zm13.86 106.1zm4.22-113.05c-1.23-3.86-25.12-6.07-23.6-11.94 8.28 1.23 16.6 3.48 23.47 8.07 9.33 6.25 3.34 14 .12 3.9zM140.6 323.2c-2 4.66 13.73 1.48 0 0 .14-.3 2.84.3 0 0zm-2.7-50.66q16.42-.25.8 8.66c-4.8-9.68 1.94-4.6-.8-8.66.35-2.07.3.46 0 0zm-2.22-33.1l-6.3 16.22c-4.42.57 9.95-34.72 14.92-30.72l-8.62 14.5zm8.84 80.88c1.87-1.66 3.6-.53 5.35.1-1.7 2.86-3.47 1.38-5.34-.1zm3.7-19.65c-11.4-2.7.36-4.4-2.92-7.45-.5.06 25.77 12.86 2.9 7.45zm8.78 18.7zM164.27 204c4 1.85 1.47 9.35 0 0 1.22.6.3 1.9 0 0zm21.5 5.5l2.34-6.26c1.16 2.6 1.7 4.93-2.33 6.3zm1 2.12c-11.73 16.05-2.34-4.38 0 0-1.67 2.38 0 .04 0 .04zm-2.93 8c2.95 1.73-4.63 13.3-5.86 14.87-2.55-2.77 4.95-13.4 5.86-14.88.35.25-1.13 1.86 0 .04zm.45 54.08c-7.42-.46-14.33-2.93-15.95-5.7 2.56-.35 15.27 4.2 15.93 5.74zm-16.7-73c-1.5-1.57-.2-6.53 2-7.74.82 3.04 1.18 5.88-2 7.8zm-3.84-21.64c-13.72 7.7-21 40.4-35.44 43.43 10.25-17.6 29.64-50.8 50.08-58.2a66.58 66.58 0 0 1-14.64 14.75zm14.68-14.78c8.46-9.57 4 1.27 0 0 1.12-1.2 3.66 1.2 0 .07zm-72.87 83.46c-.42.17 7.65 16.57 0 0 .23-.02 1.37 3.04 0 .07zm6.9-4.08c6.45 3.1-15 13.27 0 0 .27.2-3.7 3.34.02.07zm-1-8.92c1.07 5.4-.32 7-3.58 11.36-.07-.78 6.2-17.16 2.1-19.94 10.35.66 6.53 9.58 1.48 8.58.32 1.43 1.64.38.06.07zM124 192.5c-.1-5 .06 3.4 0 0zm23.1-43.9c-.5-2.92 2.14-5.6 4.08-7.76-.6-.37-.97 25.05-4.04 7.76zm5.86-7.82c5.28-9.15 3.85-.7 0 0 .33-.53.8-.14.04 0zm10.92-42.68c2.4-1.74 1.37 12.08 0 0 .2-.1.12 1.44 0 0zm5-11.06q7.16 1 8.4-6.7c.35.2 1.33 13.3 2.43 5 1.75 2.7-4.92 12.5-5.6 13.95a24.93 24.93 0 0 1 2.17-11.82c-4.23 2-11.08 7.34-7.4-.44zm-52.52 38c1.8.1-.18 12 0 0 .3.06-.05 2.02-.02.04zm-16.64 39.78c-2.35.2 49.6-57.16 51.14-68.15 4.24.64-2.2 3.17 3.85 4-.93-8.05 5.96-8.75 12.76-9.5-2.93 5.9-4.38 6.7-6.72 11.4-14.7-12.6-51 72.2-50.53 70.5-7.07-.56-12 .76-10.47-8.24 1.77-.17-.4 2.33 0 0zM96 197.34c-3.6-8.64 2.2-22.28 5.68-23.5 1 4.52-2 6.08-2.1 11.06 16.77-28.06-3.54 8.66 1.82 14.38 2.9-18.27.6-.34 2 1.44-7.6 2.37-11.27-3.47-7.4-3.37-.68-1.53-5.7-.14 0 0zM63.56 389.5c3.68-5.34 67.72-80.1 78.1-63.9-.24-.37-29 28.3-19.1 13.67.47 4.6-44.9 36.4-51.5 43.6 11.07 8 16.34 20.05 27.06 28.28a8.37 8.37 0 0 1-8.28-.1c9.2 10.18 5 10.9 8.37 23.16 6.88 25-12.4 31.94 10.2 33.47.18 2.3-4.8 7.1-5.6 6.35 9 2.9 39.9 5.6 51.28 13q-4.08.8-3.67 6.32c-21.58-7.43-37-4.78-58.88-10.7-2.9 12.58 16.1 34.47 13.2 42.77q-2.78-7.3-9.35-3.23-.8 3.3 4.52 2c-7.36 7.66-20.24 7.66-29 16.35C70 526 86.2 528.12 95.1 519.75a3.84 3.84 0 0 1-1.4-4.35c-9.05 2.5-8.6-2.78-12.4-2.72-9.3-24 15.67-47.3 11.36-72.56-2.83-16.6-39.4-35.73-29.1-50.62zm49 17.68c-3.23 3.3-15.35-10.44-15.73-11.1 6 .65 11.5 7.04 15.73 11.1-.26.27-1.47-1.42 0 0zm3.62 112.6c-.6 2.87-10.78 17.23-14.6 10.24l14.6-10.25c-.6 2.96-5.28 3.7 0 0zm188 269.9c-5.3-4 19.17-10.08 0 0zm1 3.27c-1.07-3.1 1.62-2.95 3.3-3.83 1.13 3.36-2.02 2.74-3.27 3.88zm-3-23.65c5.4-3.55 9.35 11.57 0 0 .7-.46 1.92 2.36 0 0zm18.54 24.55c-4.54 2.2-13.43 4.23-18.53 1 4.66-2.7 19.23-1.3 18.52-1zm-21.16-7.1c3.3-2.43 8.9 5.72 0 0 .62-.45 1.86 1.18.02 0zm16.7 2.4c-9.12 2.96-4.47-3 0 0-2.1.7-1.54-1.04 0 0zm-3.16-5.48c1.2-6.8 16.74 7.58 0 0 .06-.22 2.03.9.02 0zm3.84-9.46l4.26 5.93c-4.14 1.52-4.48 1.08-4.2-5.92zm7.06 14.2c-1.9-9 5.26-1.62 0 0-.16-.8.77-.23 0 0zm11.5.26zm12.62 5.85c-1.44-3.5 13.85-3.35 0 0-.06-.18 1.76-.42.02 0zm20.38 3.6c-5.35 4.7-7.15-.1-7 0 3 1.63 7.06-5 5-5.72 10.38-1.6-1.4 1.68 2 5.7-.87.78-2.33-2.8.02 0zm22.4 11.85c-4.26-3.3-1.9-5.68 0 0zm-4.63-5.43c-.64-2.6 11.46-2.6 0 0-.1-.43 1.57-.36 0 0zm8.68 6zm15.63 3.17c-6.9-9.84 7.93-2.77 0 0-.7-1.05.83-.3.02-.02zm2.74.74c-.28-2 11.66-5.32 0 0 0-.25 1.73-.8.02 0zm15.96-189.94c-8.4 3-3.82-1.94-11.42 1.35q3.7-4-1.95-5.16c.1 0 14.23-2.75 13.37 3.8-1.54.5.47-3.56 0 0zm-18.9-18.88c.84-.76 5.13-8.85 7.6-4.7q-7.2 2.62.45 4.68-.32-6.38 7.54 1.74c-6.7 4.4-12 1.73-15.6-1.73.63-.54 1.74 1.67 0 .02zm2.5 4.3c-4.85 4.63-7.74 1.4 0 0-1.2 1.15-2.14.4 0 0zm10.23-16.83a32.2 32.2 0 0 1-6.73 5.85c-.07-.06-21.48-14.2-24.2-10 2.8-4.3 32.47 2.28 30.94 4.17zm.3-3c12.57 2.6 5.12 4.5 0 0 2.8.57 1.05.9-.02 0zM401 599.4l10.12 2.92q-12.12 3.1-10.12-2.92zm32.1 26.1zm35-51.74c1.65-.25-11.6 17-29 3.63 1.2-2.4 52.67-7.22 29-3.62zm14.9-69.36zm9.26-18.92c-5.45-5.08 12-4.3 0 0-.2-.2 1.63-.58.02 0zM514 403.12l-4.87 2.57c.74-2.38 2.03-3.83 4.87-2.58zm-8.53 25c-4.53-2.37-.43-5-1-7.27 4.3 2-.06 4.54 1 7.28zm-3.3-21.7c-1.9 2.6-4.15 1.15-6.55.7 2.13-2.92 4.54.46 6.57-.68zm3.34 10.68c-3.48-1.15-7.86.75-10.57-2.84 3.98-.33 7.9-.66 10.6 2.86zm-7 17.17c-.74 12.1-3.88 0 0 0-.12 1.64-.34 0-.02.02zm-11 8.65c-5.52 19.1-3.7 1.53 0 0-.87 3-4.38 1.82 0 .02zm-9.1 6.56q-9.6 5.9 2.45 13c1.78-9.4 1.54-6.35 2.53 3.46 11 .88 2.87-4.9 14.06-2.85-3-3.33-8-29.82-8.9-29 8.06 5.27 17.66 20.52 25.7 18.46-3.67 3-8 6-10.7 10 5.7.28 17-3.42 17.4-11.7-5.5 2.07-12.78-4.78-10.46-12.4-5.94 7.12-4.87-.5-10.8-1.46 4.3-17.3 13.08 5.64 14.8-3.17 11 25.27 14.23 21.1-12.12 44.23 2.47-2.17-19 9.4-20.56 7.86 3.3-6.78 15.33-15.14 21.14-19.84 1.9 1.18-21 10.1-23 11q-1-5.93 4.88-4.15c.67 4.87-13.62-34.4-6.46-23.5-1.28 1.45-.13-.2.03.06zm-9-40.15a28.93 28.93 0 0 0 4-11.63c8 17.23 0 4.2 3.84 10.6-1.1.82-9.7 12.27-11.15 12.5-4 .64 2.1-11.32 3.28-11.46zm-6.88 15c1-.88 8 9.1 0 0zm-.6-89.24q7.4 1.83 6.14 7.2c.16.04-15-2.27-6.15-7.2 2.1 1.74-.3.12-.03-.03zm-1.52 179.13q4 7.6 5.26-2c.64.82-9.36 24.84-5.26 2 1.1 1.24-.67 3.5-.04-.02zm-8.63-136.14c-2.7 2.42 6.8 7.7 0 0 .08-.1.66.76-.04-.03zm.23 149.23zM445.9 389c6.48-.87 1.16 4.7-1.3 8.3q1.23-.53 1.7.52c-5.3 3.25-5.43-8.14-.4-8.82zm-13 151.88c.67-1.8 7.5-11.62 11.4-5.78-3-1.13-12.13 7.78-11.4 5.78zm2.7 15.27l3.9-3.7c.8 2.96-1 4.37-3.9 3.7zm-10.1-14.22c10.9-7.7-3.4 15.08 0 0 1.34-.93-.28 1.2 0 0zm4.95 23.84c2 .44 18.55 4.43 18.55 4.38q-39.54 6.73-18.55-4.38zm-1.37 10.7c-4 1.56-4.92.9-6.7-4.66zm-28.68-16.1c6.13-6.74 13.3-9.5 20.58-14.88 2 5.3-26.54 21.4-20.58 14.86zm-8.4 14.38c3.3-11 28.9-.06 29.26 2.46-.9-6.55-34.56 15.15-29.26-2.45zm-14-364.88c6.7-.73-3.3 11.43 0 0 .63-.07-.4 1.38 0 0zM376.72 580zm-.27 20.86c.83.1 32.7 8.94 32.43 6-13.07 6.25-9.14 3.06-26.55-.78q1.14 5.14-2.23 2.7c.26 1.83 12.4 4.52 14.67 6.8-10.78 11.57-25.2-2-18.3-14.7 1.66.24-1.47 2.67-.02 0zm-7 2.8c.6 3.07-.62 3.76-5.35 2.22zm-14.08-401c8.82 3.9-6.42 7.5 0 0 1.17.56-.87 1.1.02.05zm-8 9.38c-2.24.6-4.33 1.3-4.88-2 4.24-1.04 3.5-.23 4.85 2.04zm-5.8-4.43c1.72 5.2-17.9 5.4 0 0 .23.8-2.7.86-.03.06zM333 606.53c6-3.8 9.43-7 15.4 2.1q4.74-7.34 13.23-4.64c-3.14 10.65-.94 7 8.45 4.1-2.27 6.52 9 3.83 6.3 11.94-2-1-57.3-1.07-33.12-11.43-3.34-3.5-9.63-2.47-10.26-2.08zm.28 16.4c4.58 9.38 33-5 29.86 3.88 6.7-6.12 49.83-11.27 53.52-12-48.1 42.63-130 74.45-193.53 87.06 7.84 8.9 21 9.5 31.62 13.06.95-17.63-51 22.55-52.38 30.25 7.47.47-2.15 1.9 3.57 4.35q-1.12-4.7 5.12-4.2c2.42 5.04-8.4 0 4 5.32a20.48 20.48 0 0 1-7.5 1.26c-.43 1.07 7 9 8 12.85q-1.64-2 1.32 4.34.13-12.24 6.56-.94c1.44-3.8 1.85-12.42 2.52-11.37 3.4-.22 9.9-.28 14.46-.15a8.92 8.92 0 0 1-.4 7.16c6.35-1.6 12.84-1.62 19.1-2.9q-.58 7-5.5 8.4c-.2-.23 25.77 15.07 18.5 14.68q-1.9-12.2 12.5-9.1a10.3 10.3 0 0 1-3.07 3.46c3.73 5.77 2.75-2 5.94-1.57.66 6.63-1 4.8 4.86 6.7-6.07-6.9 7.72-2.8 11.1-8.86-.6 5.63-11.27 14.08-4.45 21.2-6 .9-24.14-.5-21.68-6.62-9.4 7.1-4.14 5.76-11.4 1.8q-3 2.74.4 5.16c-14.3.72-18.22-4.55-23-6.54-.82 1.6 1.66.84 1.36 2.6-13.54-1.74-21.13-10.44-39.8-11.75-3.26-.23-13.68.17-14.66.24-19.2 1.48-21.7 11.25-33.46 12.5-35.47 3.8-56.36-6-89-11.6C-6.56 768.73 16.4 702.35 81 690c16.8-3.2 54.28 16 68.25 24.2 9.2 5.45 23.77 24.12 31.42 27.06a184.48 184.48 0 0 1 15.48-31.43c-31.8 0-37.23-13.77-58.1-24.46-8.06-4.13-26-3.42-35.57-11.8C89 661.78 85.78 620.1 75.4 645.34c-3.34-1.42 2.43-61.35 6.6-52.87a56.07 56.07 0 0 0-3-17.8c10.5.92 6 8.52 10 15.6 11.43-3.92-38.56-53.35-2.25-57.68-2.7 18.6-.4 35.24 16 47.48 2.7-15.08-14.53-33 9.48-33a100.88 100.88 0 0 0-19.23-5.5q3.47-6.32 7.9 0c.9-4.68-1.72-3.1-1.18-5.92 18.05 1.63 40.45 29.86 53.16 35.68-11.9 20.54-38.85-17.16-46-21.18-9.58 14.6 19.88 42.73 24.7 46.6 12.08 9.67 68.65 57.58 66.35 58.3 6.62-18.86-74.38-37.57-65.2-37.1.94 7.58 13 11 18.5 12.2-3.53 3.32-2.9 4.57-7.12 8.22 2.63-7.26-8.82-7.1-11.2-10.2-1.66 8.07 6.34 12.65 10.57 16.3 4.33-5.3-.63-5 6-5.8-2 2.9-1.12 6.4-1.5 9.83a22.37 22.37 0 0 0 8.85-9.3c-6.93 7.8 38.16 35.87 45.56 40q-6.48.38-3 5.77a19.2 19.2 0 0 0-12.73.2q4.4 4.3 8.9 8.5c0-.1-8.38 5.15-9.66 5.6 1 8.5 86.14-16.36 97.16-24.54.6.74-8.43-1.6-4.14-4.5 3.47-2.3 18.93 8.73 20.94-3.1-21.44-3.5-97.6-23.32-93-47.37 3.56 3.22 5.33 7.08 7.72 11.22 1.1-.28 1.17-5 4.52-6.3.35 22.38 49.88 12.57 49.63 12.07-9.1-18.48-32.52 1.9-32.52-31.78 7.2-1.7 34.17 26 39.87 29.5q-7.05 1.64-4 8c-.68-.22 17.3 3.13 7.37 2a9.64 9.64 0 0 0 9.55 3.7c2.2-4.32-2.33-2.76-5.2-7 8.82 2.8 6.73 4.62 12.2 8-1.86 9.22-39.25-2.73-45.53.55 15.67 16.06 49.7 9.62 69.08 9.72 12.28.06 36.18-18.5 25.66-1.94 5.74-1.06 41.57-28.47 43-27.14-9.3-8.74-104.35 28-105.92 1.68-.42-7 30.6.58 35.3-.2-2.86-1.4-16.53-5.26-16.74-6.74 13.18-3.33 6.53-9.56 24 2.86.24-.2-.34-4.73.4-6.27q1.88 7.76 8 1.25c.96 1.82-1.93.97.06-.03zm-34.57 154.6c-13.83-9-.6-3.74 0 0-2.53-1.65-.7-4.18 0 0zm-14.53-10.32c4.8-4.66 4 8.6-1.95 6.32.9-6.32 4.48-1.83 1.95-6.32 1.83-1.8.52.92 0 0zm-7.23-41.43l1.8-5.94c2.7 2.4 2.7 2.4-1.8 5.94zm-12.62 35.73c0 5.37-7.94 1.35 0 0 0 1.6-1.32.23 0 0zm-4.9-.78c-4.1-7.74 1.9-4.14 0 0-.42-.86.9-1.96 0 0zm7.37 2c8.82 8.85-5.9 12.6 0 0 2.08 2.06-1.06 2.2 0-.04zm1.88-1.44c.33-2.15 1.27-3.4 3.83-2.44-1.75-.03-.82 4.22-3.82 2.4zM248.1 753zm-5.4-7.44c-8.92 2.3-2.17-4.15 0 0-1.26.3-.1-.24.02-.02zM219.93 737zm4.27 6.56c-.52 2.64-10.92-1.88 0 0-.07.28-1.47-.28 0-.03zm-1.95 14.9c-7.3 10.9-11-9.76 0 0-.6.88-3.25-2.9 0-.02zm-1.14-3.8c7.73-5.7 4.37 3.85 0 0 .5-.38.6.5.02-.02zm3.34-3.5zm-79.37-153.33zm-1-3.68zm34.62 66.17c.9-1.2-11.17-4.46-10.66-4.57q1.6-5.28 6.75-5.46-6 6.42 3.9 10c.07-.1-.53-3.42-.02.02zm-16-26.4c-4.36 10.12-7.3-2.13 0 0-.62 1.42-.35-.1 0 0zm-8.25 4.55c-3.75-4.8-3.75-4.8 0-7.43 1.48 2.44 1.73 4.8 0 7.43zm93.92-37.94c2.18-4.88 8.67 3.5 0 0 .63-1.32 1.5.6 0 0zm18.3-10.48c0-.07 9.84 1.43 0 0 .75-2.24.94.14 0 0zm12.94 29.23c2.58-8.47 5 2.5 0 0 .34-1.08.54.27 0 0zm16.5 29.87c2.2 2.66.7 6.57 0 0zm-5.22-32.47c8.28-14.52 3.85 2.63 0 0 1.3-2.27.24.17 0 0zm32-32.3c2.67-9.87 17.53 13.94 0 0 .05-.38 2.6 2.1-.05 0zM319 178.67zm-14.28 44c.38-6.9-1 17.7 0 0zm-7.3 10.1c5.58 11.76-2 .9 0 0 .35.86-.5.22-.04.04zm-4.05 49.87c-.2-2.17 20 16.87 22.27 17.2-.65-4.85 3.8-3.82-2.35-7.4-.46 0 13.06 22 13 20.8-15.64-6.25-32.3-30.4-32.98-30.55-.02-.2.68.16 0 0zm-13.06-4c5.88 4.33 4.93 3.34 6.3 9.28q5.14-1.32 2.12-5.64c4.45 1-.36 8.74-1 9.7-4.07-5.7-4.86-10.74-7.46-13.28zm2.6 300.7c-9-1.06 15.2-1.2 14.34 3.16l-43.77-3.87c-.12-6.73 26.08.32 29.42.72zm-20.28-13.28zm13.52-225.47a56 56 0 0 1-37.88-6.9c.63-2.34 33.43 5.15 37.88 6.9zm-2.46-73.6c-.3 2.54-3.2 2.83-6.5.72zm-6.37 6.06l-7.7.48c2.3-1.97 2.3-1.97 7.7-.43zm-1.4-4q-8.86 5-13.85-1.33c3.32 2 9.75-2.9 13.85 1.33-4.1.4-2.47-2.52 0 .03zm-10.4-73.87l-2.7 5.66c-.92-4.47-.8-4.8 2.7-5.63zm.65-4c4.8-10.62 5.1 1.5 0 0 1.18-2.54.47.2 0 .07zm9.44-6.82c-3.95.57-5.53-5.05 0 0zm9.87-11c-3.92-5.2-1.72 6.5-4.58 9.94a6.52 6.52 0 0 1-4-6.8c1.68 4.25 3.92-13.6 14.04-12-2.2 9.53-1.37-1.2-5.43 8.82-.66-.68.8-1.88-.03.15zm2.95 12.32c-7.48-3.22 9.88-9.43 0 0-.47-.1 1.26-1.1 0 .1zm7.1-11.8c-4.63 14.42-5.6-8.94 0 0-.52 1.74-1.77-2.72 0 .1zm-6.86-29.44c-5.6 2.38-23.8 27.3-26.65 26.63 4.24-16.42 9.95-11.14 14.13-17.45q-.8-3.16-4.58 1.6c3.5-5 25-14.15 17.1-10.8zm-13.36-7c-.26-.57-6.82 14.05-7.54 4.54-.37-4.92 5.18-12.67 10.18-13.6q-10.16 10.4-2.64 9.06c.1.36-.53.15 0 .12zm4.1-12.33c-3-2 8-5 11-8 .18 13.8-13.46 9.47-11 8-.24-.03.54-.22 0 .12zm56.64-14c2.14-3.15 24.83-23.64 25.86-30-20.45-10.54-152 71.5-155.2 85.64-.86-.46-3.6-4.86-3.53-4.9-.08 0-21 38.88-24.34 28.46-4.16-2.62 37-54.64 39.9-61.5q-2.84 3.27-5.33-.08c25.64-14.63 52.65-58 89.14-66.52a18.88 18.88 0 0 1-13.74 10.6c12.64-2.52 48.94-8 51.32-17q-3.1 5.77-5.47 2.55c8.9-10.82 21.15-10.27 33.2-8.08-3 1.12-13.44 5.1-15.86 5q-1.4-2.42 2.57-2.9c-8-3.3-6.27 6.5-8.6 9.35 7.42 3 30.44 6.35 28.17 10.93 1.12.46 15.33-3.9 19.23-3.55-3.78 4.53-8.62-3.06-11.26 7.43 15.5 3.8-.72-1.5 5.75-3.4 3.54 8.84-6.54 8.46-7.94 1-18.34 6.7-31.18 18.44-43.9 37.08zm46.32 4.82zm6.54-17.88c.33-3.62-11.13 7.6-5.7-7 7.9 2.94 2.28.82-.33 4.48 2.63 1.38 14.95 9.3 6 2.5 0 .38 1.13.95.03.13zm20.86 3c-3.86 4.1-6.3 3.6-13.18 5.5-.42-3.3 26.53-19.73 13.18-5.5zm.82-19.2c-1.34-.6 2-9.3-2.27-8.73.52 10.63 1 10.17-4.85 1.24-2.62 3.64-4.5 5.58.08 3.74 1.28 8.92-73.3 35-65.26 40.66C340 97 380.6 94.15 381.62 74.06c5.3 2.1 5.8 1.8 9.56-3.77q-2.26 9.7 9.84.53c-.7.54.05 7.78 5.55 2.8 4.27 3.23-4.88 8.36 3.83 9.43.16-1.54-2.3-7.22.28-7.82a18 18 0 0 1 5.32 3.6c-9.44 6.72 5 12.3-15.37 3.1zM440 101.62c-5-1.44-7.44-3.3-6.62-6.06 6.43 0 10.3 7.12 6.62 6.06zm5.77 3c-4.13 2 1.07-18.84 0 0-.24.1.16-2.3.03-.02zm.87-19.07a46.78 46.78 0 0 1-28 6q9.08-2.92 5.44-6.3c-1.8 1.4-16.3 19.38-19 10.5 25.17-11.7 2.52-14.67 28.07-15.16-3.15.04 31.7-6 13.5 4.93zm7.2 7.67c-2.8.12-2.67-12.74 3.18-16.93 0 4.13 1.2 16.73-3.18 16.92zm60.27 13.2c.74-3.27-97.22-19.2-40.7-30.3q-.33 3.86 2.5 2.48c-.14 1.12-9.7 6.34-7.94 7.65 2 1.5 48.75 8.62 46.15 20.16zm103.66 84.13c-.26-3.8.44-4.7 3.3-3.76zm-2.88-6.66c2.6-1.22 3.56-5.35 8-4.33-2.1 3.05-4.12 5.27-7.97 4.3zm15.3.63l.68 5.85c-2.95-2.04-3.06-3.52-.66-5.87zM396.88 606.35c-.2-.3-.08-.2 0 0z" class="cls-1"/><path d="M617.73 190.6c-10 9.14 19.43 20.27 18.78 21.26-1 1.47-7.75-1.54-7 1.93 2.33-.66 6.8-.22 9.3.2v15.27c-13.3 0-11-15.34-18.3-14.87-3.3.22-1.8 12.93 4.28 10.6a9.22 9.22 0 0 1-9.13 2.76c-5.72-2.86 1.9-13.66 1.3-14.8-3.16-5.85-7.48 7.24-6.77-5.3-8.22.95.84 13.05-13.17 8.5q2.37-2.76 4.63-.38C596.4 211.3 589 179.9 591 172.68c-3.6-.2-72.44-18.35-69.65-7-5.1.78-12.46-.83-17.08-1.15a5 5 0 0 1-.76-4c9.68-6.66 12.3 8.2 19.58-4.74-5.55 1.93-2.27-4.33-6.84-2.56 4.3-4.78 19.44-3.63 18.7 3.14q3.72-6.47 5.44-.05c11-7.88-10.47 8.34 10.83-6.48-7.5-4.44-6.73-2.6-6.3-8.84-6.6 1.76-2.68-2.7-13-.72 1.7-5.58 8.27-2 1.16-6.58 7.47-2.13 27.1 13.65 35.72-.63-11.2-3.77-69.67-9.2-68.57-7.42-2.62 3.26 8.5 11.86 2.54 13.35-.4-4-26.65-12.4-24-3 6.7 3.67 19.72 6.1 28.32 8.54-2.76 1.13-35.33 8.37-35.27 8.36q3.66-7.75-5.7-7.7c.1 1 7.6 7.16.65 7.62-1.43-10.2-17.7-.3-16.45 4 6.5-1.5 39.36 10.2 42.36 3.66 12.22 12.68-25.28.15-32.92 5.27 13.24 1.45 1.44 2.2-2.14 3 .8-.64-.95-2.8-2.16-6.56-7.64 1.5-18.15 1.12-28.6 9.52 16.95 7.44 38.53-7.28 37.65 7a12.15 12.15 0 0 1 4.82-2.6q-5.5-.4-1.84-3.7a10.28 10.28 0 0 1 8.5 3.3q5.15-3.1-1.32-1.93c.17 1.3 12.2-1.48 16.44-2.15-4.52 5.87 5.83 2.82 8.46 11.25-4.48.2-14.2-6.13-11.93 3.12 11.08-2.77 15.12 9.12 26.6-.86-.8-1.62-3.43 1.77-5.7-2-5.55-2.17 13.7-2.12 10-.83.27 1.44-11.92-9.23-15-9.77 5.84 7.53-9.6.3-7.62 2.14 5.42-16.15 23.7 0 24.58.56 9.54-10.73 4.4-3.9 16.3-2-.57-18.6 22.5 22.5 25.1-1.95 6.3-1.1 2.7 8.34 2.95 10a27.68 27.68 0 0 1 9.5-.7 16.82 16.82 0 0 0-8.07-4.33c8.23.18 17.34-3.95 18.87 9.28-2.54.86-12.32 3.78-5.84-4.26-5.45 0-7.65 4.32-13.08 7 4.83 3.5 16.54 26.7 7.83 28.36-13.83-9.2-8.58-13.05-19.2-8.18 4.07-21.85-30.4-15.23-30.67-12.86 9.8 1.75-27.5 8.8-33 8.8q3.63 4.24 8.42.37c.24-1-29.64.08-34.14-.15.08-3.9.1-7 2.37-7.8-10.18-3.33-38.3 5.63-48 5.63 3.25 7.28 1.43 3.54 2.1 7.78-15.93 2.27-16.82 2.34-27.46 8.18 8.82 10.36 33.4 31.06 38.3 21 2.22 2.8 6.14 17 10.25 6.24-9.6 3.5 10.67 1.3 6.9-3-4.15-4.7-19.47-5.44-25.38-3.3q3.38-4.64 9.64-4.25c-.78-3.82-9.66 3.6.65-4.1-6.25-4.3-10.54-2.76-5.44-9.82-.08-.05-12.45 1.62-17.9-5.78 3.34-3.77 8.46-3 13.5-2.2q-4.88 2.05 1.2 6.46c2.7-1.66-3.23-4-.4-5.6 2.46 3.9 5.63 6 8.48 9.47q-1-4.35-4-4.08c4.17-5.4 31.83 12 39.4 8.33-.15 2-12.4-18.74-11.94-19.27 4.73 4.13 11.27 8.64 15.77 3.34q-6.33-5.47-13.62-3.7c-.9 2.7 66.6 12.4 73 15.12-1.28 1.33-29.2 12.27-29.78 14.07 10.62.8 24.84-.08 5.26 2.9 11.07 7.07 18.36-1.67 20.72-2.6 1 2 3.33 3.7 3.76 4.93-33.08 14.4 6.53-2.42-19.12 4.7 5.5 10.77 12.9-.9 18.6-.2 0 9.28-10.15-1.77-2 8.64 1.48-4 17.76-4.64 19.14-4.32 1-8.72-11.38-5.15-15.74-4.53 5.37-9.86 32.65-5.83 34-5.83-.53-6.5 15.74-7.23 23.7-15-.58-1.38-6.26-7.3-7.6-7.9 1.9-3.62 14.1 8.7 16.4 11.18a5 5 0 0 0-2.84 3c-10-5.92-43.88 16.13-44.84 24.75 11.25-1.72 17.55-8.63 26.88-11.06 2.2 4.6 12.06 22.17 18.9 24.3-.35-1-3.45-8.1.35-8.75 3.43 9.92 13.1 15.3 18.58 29.83-14.06-3.57-13.4 1.7-7.78 6.22 12.93 10.36-9.3 39.84 18 36.2-9 9.58-8.74 21.08-15.2 31 7.06-.46 8.4 4.94 4 9.7-1.42-6.83-7.62 6-.4 8q-1.5-2.2.22-2.53c5.35 4.37-9.46 16.52-2.84 24.6-6-7.28-6-22-7.28-33.78-48.4 15.16-25.13 1.92-63.28-15.7-13.48-6.24-38.1-3-46.5 3.83-6.7-7.57-7.1-3.2-26.92 1.67-2.4-16.1 20.33 6.33-1.26-18.36 13.22 8.58 24.18 4.8 40.32-1.08-4.83-1-32.6-5.06-32.65-5.28 1.06-.54 14.8-3.1 12.1-7.65q-3.9 3.95-10.27 2.95-.87-2.4 3.16-1.44-6.15-3.8-1.7-6c-11.6 0-28.5 7-34.68-8.26 0 0 12.5 16.68 15.52 19.2-7.66-1.13-27.12-15.85-18.52-22.22-6.2 1.3-17.2-7.75-8.23-5q-.6-7.12-8.37-7c2.3-5.1 18.42 3.8 19.26 3.84q.9-3.2-4.1-2.13c2.93-1.8 17.33 18.7 31.5 4.23-12.23-3.2-38-5-43.3-15.83 1-.7 15.6-10.95 4.48-1.05-.52 0 9.54-9.82 9.56-10.26s-15.85-3.43-15.64-3.52c4.1 8.75-2.08 2.45 2.44 6.36a13.33 13.33 0 0 1-4.42.6c3.8-14.5-22.1-18.43-23.08-18.58-1.3-5.8-13.3-22.2-11-7.84-11.72-9.95-.17-2.17-5.82-11a24.1 24.1 0 0 1 11.2 7.16c-.12-.73-15.8-16-14.83-15.33 7-12.77.94 2.46 10.2-.9-2.3-7.36-4.88-14.6 0-5.36-9-.38 8.4-6.6 6.58-5.87-5.54-6.52-9.72-.86-16.3-8.3-2.84-3.18 13.2-9.46 17.16-3 .86-3.3-3.52-7.2-2.5-8.85 6.13 2.24 13 1.73 19.8 2.18-14.2-13.28-24.83 4-36.75-5.8q-.57 4.24-1.36 8.43c-3.92-1.46-5.77-.5-10.74.44.22-4.74 15-5.9 9-11-5.1 1.33-17.66 12.83-14.54 12.06-7.5 1.85-.8-5.05-3.64-11 12.36-6.78 14.68-15.32 24.14-14.8.95 8.24-1.4 5.08-2.68 14.13 5.5.65 16.16-4.47 25.94-4.2-1.63-2.6 4.5-4.5 8-4.63a6.16 6.16 0 0 1-2 3.33c-4.64.33 22.9-7.65 21.92-7.3.65 2.2-17.87-9.7-17-8.92-.78 4.2-50.1 6.74-49.67 3.33 3.25 4.32 11.06-2 6.32 4.63-13.2-7.84-9.46 8.37-26.8 7.58.36-4 14.24-7.36 11-13.4-7.37.93-25.83 15.85-10.9 20.27-3.26 2.46-2 3-4.48 5-4.68-9.4-3-1.93-10.24-5.13 5.45-11.23-12.45 15.3-9.68 11.53-3.3-10.44 24.88-27.28 19.5-37.8-9.44 4.5-15.53-.2-27.07 3.8-19.4 6.74-34.47 42.68-48.28 42.06a12.76 12.76 0 0 0 3.5-9.33c2.48 13.66 6-19.45 6-15.73 4.26 2.94 29.9-15.86 24.8-28-6.37 1.62-11.6 7.27-18.22 2.55 2.43-2.6 8.68-1.74 9.75-6.3-4.7 3.5-3.44 2.2-2-4.43-8.1 4.12 4.9 1.85-8.93 6.07 2.33-4.06 3.2-7.4 6.34-11.85.12-1 26.35-12.72 37.43-17.33 1.58 4.22-8.1 2.3-2.45 10.6 1.12-7.3 5.8-8.45 4.75-11.28-.94.44 15-4.62 11.38-5-.58-5.9-23.6 5.27-22.26 4.25.07-4.65 5.12-9.88 10-15.57.6 6.95-.22 3.88-4.34 10.46-1.5-.48 42.73-4.26 41.83-4q-4.64-.6-3.23-4.87 4.8 5.42 12.64 3.05-3.42-1.55-3.1.55c-4.4-6.3 21.15-5.85 23-5.22-.07.2-4.12-8.47-4.94-7.2 7.1 4.82 8.3 4.75 13 7 .28-.52 2.06-8.12 3.87-.73-3.72 2-4.07-19.34.93-9.38-9.62-3.66 29.28-1.9 36.44-4.42a25 25 0 0 1-4.23 7.8c-.35-1.63-11.1-.38-18.28 6.35 12.43 6.34 40.6-.08 54.24-1.9-1.4-3.47-8.84-2.6-13.43-2.6 0-10.25-14.92-6.28-12.3-15.06 12.1 5.65 32.9 14.7 24.3 22.75 2.2 5.2 9.1-1.3 6.35-4.3 19.14-8.2 80 6.12 101.23 18.55q-1.57 5.66-9.65-.68c3.08 10.1 1.94 7.3 9.47 14.05q-2.35-4.52.72-5.32c6.58 10.32 24.75 28.46 32.82 28.46.23 3.5-5.84-.6-4.48 5 4.1-2.5 1.4-1.86 7.8-1.86-12.68 16.97-5.68 10.84 1.05 15.77zM510.45 347.5c6-5.1-6.3 1.37-7 .55q13.84.34 7-.55c2.83-2.4.55.08 0 0zm3.16-40.66l13-1.54c-14.5-7.24-15.07 7.86-13 1.54 4.2-.5-1.17 3.5 0 0zm-26.26 14.28c4.57 1.6 0-6.4-.27-7.23-2.6 3.76-3.3 3.6-7.88 2.15 1.26 5.46 5.57 4.2 9.43 9.32q2.76-1.27-1.3-4.26 15.2 1.2 0 0c-1.33-.43 2.44-.22 0 .02zm-136.94-186c-4.3 13-5.4 9.76-15.2 5-8 16.53-33.62 14-32.58 33.4 5.84 3.22 20.65-15.4 24.57-15 0 6-5.23-.6-.9 7 4.5-2.42 7-11.14 15-7.58q2.43-4.9-2.1-1.25 1.2-4.64 4.57-2.06c7.87 14 3 5.83 18.23-.54 3.23 10.17 4.58 2.46 9.13 7.32q-5.93.1-5.1 5.37c15-12.28 55.76-11.6 70.63-13.32a37.23 37.23 0 0 0 .65-9.3c-6.1-.47-15.48 7.67-15.48-1.9 9.4-.54 3 1.8 3.24 2.72 11-3.17 19.87-2.46 30.2-3.63-11.8-8.45-41.32-5.85-39.23-9.83-9.1-.62-46.32 30.42-50 26.12-4.77-5.55 10.5-12.6 1.9-14-5.95-1-9.26 6-16.8 4.72.7 4.47 1.67-29.15-11.37-8.1a6.47 6.47 0 0 0 3.1 3.3c8.42-1.22 1.43-4.7 7.5-8.38-.76 2.28-1.1.58.03-.1zM526.85 188c5.46 2.68 7.32 3.1 8.72-3.12-8.7-.84-11.56-2.25-5.46 1.88-9.07 3.7-11.86-1.34-17.48 4.2a8.8 8.8 0 0 1 8.3 4.48 56.1 56.1 0 0 1 5.93-7.45c1.47.7-.4.3 0 0zm-33.27 116.4c.13-3.78-13.9-.36-16.15 1.14 2.82 4.75 11.3-7.4 3.75 4.5 12.65.9 8.34-9.7 17-1.33 5.45-4.65.1-4.7-4.64-4.3.17-3.9 2.03-.16.04 0zm32.6-46.82c-2.78 2.38-9.13 5.56-8 9.38q-7.14 1.27-4.82-6.65-11.28 2.27-.8 2.8c-10.87 6.95-31-7.48-40.7 8.82 7.78 1.16 60.12 3.84 69.26-9.25-4.4-.26-11.44-5.24-14.95-5.08zm77.28 48.6c-4.9 4.15-3.48 19.7-8.73 21.6 1.85-17.17-8.86-12.73-11.76-.43 2.54 0 15.34 4.63 15.93 9.17-5.6-2.13-13.94 7.43-17.4 7 1.54-4.7-5.15-6.27-8.4-4.88 1.25 2.46 3.6 2 5.24 4-7.75-1.16-11.3-.9-15.28 6 .9-.1 15-4.15 15.6 1.2q-8.1-.57-6.8 7.55c-3.6-5.83-8.25-7.28-15.13-3.45-6.1 3.4 11.52 11.38 11.06 11.22-5.77 1.88.3 8.7 2.2 14.2 4.2-.83-1.33-7.8 4.7-4.13-1.2-9.43-1.87-4-6.66-7.5-.06 5.24 3.75-20.57 1.2-9.7 15.64 4 28.22 6.75 40.8-4-7.06 6 .57-38.15 4-24.5-14 2.67-11-11-10.56-23.37-1.23 1.04-.13 3.4-.02 0zm-49.75-25.75c-.2 2.77 9.16 3.07 8.94 2.9-11.53 9-13.87 2.7-20.65.44-6.46 21.6 35.83-8 38.13-8.72q-3.4 4.35 2.54 1.87a175.6 175.6 0 0 1-17.32 15.5c5.64 1.73 3.4-2 8.86-.76-1.75 9.5-2.4-31.1 5.4 7.77a11.37 11.37 0 0 0-10.95.36c3.84 14.24 46.78-21.56 17.56-36.2-4.87-.1-3.27-8.73-7.3-10.7-6.47-3.13-14.4 26.15-16.58 15.7-3 .2 1.77 9.14-8.6 11.82-.03.32 2.36-.6 0 .02zm-89.86-27.2c-6.33-10.94-7 4.2-7.5 10.06.1-1.26 36.3 9.64 36.64-7a24.72 24.72 0 0 0-10.4-2.83c7.5 2.5-5.84 5.56-7.37 5.66 6.28-4.74-19.36-.84-11.36-5.9-.92-1.57-.62.4 0 0zm68.8 92.6c.3 8.12-2.34-.6-1.8-3.82-.08.4 14.46 4.78 18.33-1.63-12.6-6.5-23.38-1.88-37.5-.3.16 1.68 6.36 1.8 8.26 2.45-17.25 3.16 8.44 3.9 12.7 3.3.03.3-1.63.24.02 0zm-43.58-121.38c-3.7 3.53-6.9 1.25 1.23-2.24-12.67-3.47-11.4-4.17-24-5 7.54 6.52 11.28 1.4 16.43 5 4.66 3.3-13.92 2.53-7.88 2.53 2.47 4.43 24.8 11.6 24.53 1.95q-11.1 5.12-10.35-2.22c-.84.8.08 1.1.03 0zm-89 16.43l-5.14-9.16s-4.94 7.7-6.38 11.6c6.25-4.68 15.1 8.18 21.6 6.7-1.7-3.4-6.07-6.46-9.8-6.2 6.07-7.85-.3-9.12-.3-2.94-3.8-2.24-.04-1.4-.04 0zm209.4 105.43c12.8-4.85 2.38-5.53 2.48 6.36 9.13-4.82 7.4-21.1-2.47-6.35 2.3-.86 2.05-3.04 0 0zm-309-186.46c5.1-1.1-2.33-5.4 6.8-5.9-.68 3.32-2.6-8.53-2.53-8.2-3.5 3.1-5 9.6-4.26 14.1.27-.06-.2-1.07-.03 0zm200 67.73c4.3 3.54 8-6.92 0 0 4.77 3.92.92-.8 0 0zM453.1 258.4q8-1.46-3.15-3.07c-.6 1.55 1.73.78 1.13 2.63-7.5-1.8-.7-4.66-8.55-3.73-2-1.86 15.96 13.62 10.58 4.16 1-.3.42.73 0 0zm106.7-99.46c-1.2-.94 6.15-2.2 8.6-1.22.8-5.7-3.63-2.5-5.45-6.8-12 8.26-.4.1-3.14 8 .2.2.35-1 0 .03zm-184.36-14.6c4.7-6.53-.55-6 3.26-11.83q-12.8 11.85-3.26 11.84c1.34-1.86-.5-.06 0 0zm-5.92-7.48c6.26-3.65 4.8-3.6-1.5-6.4-12.92 14-2.15.5 1.5 6.4 1.15-.67-1.96-3.17 0 0zM549.6 345.8q7.5-2.5 3.18-9.8a12.3 12.3 0 0 0-3.2 9.8c2.74.9 2.1-2.8 0 0zm12.4-4.4c-3.4-.52-7.68-2.5-6.77 3.83 6.54.2 6.54.2 6.77-3.83zm-44.6-11.06c-5.86-8-.45 2.6-.3 3.42q10.93-4.5.3-3.42c-.73-.94 2.88-3.05-.04 0zm-61.57-63.16c-10.28-11.64-4.6 2.86 0 0-1.83-1.97-3 1.82-.05 0zM513.7 351c18.4 6.43 3.24-6.4 0 0 2.5.92 1.7-3.32 0 0zm60.84 26.14c-1.6 10.92 16.08-7.33 0 0-.4 2.77 1.58-.67 0 .05zM456.8 135.32q-4.62 4.72 7 7.12c3.7-2.87-5.93-6.46-7-7.12-.3.42 2.37 1.42 0 0zm61 90.8c-1.26-1.95-15.47 11.64 0 0-.18-.35-.9.7.04 0zm21 79.6q5.3 5.24 8.63-1.25c-15.52 2-.72-3.65-8.62 1.24 1.9.97 1.65-1.02 0 0zM429.4 185.64c3.74-7.17-5-7.4-7.26-4 2.62 4.5 4.3-5.58 7.25 4 1.82-3.5-1.13-3.65 0 0zM560.73 150c-2.54 1.72 3.94-12.07 0 0 3.26-2.23.4-1.25 0 0zm10.36 159.8c-15 9.38.56-6.8 0 0-1.8 1.13-.23 2.83 0 0zM420.64 112.9c-5.9-6.22-11.23 4.7 0 0-1.64-1.75-2.05.86 0 0zm-30.33 8c.25 4.85 18-3.8 0 0 .04.62 2.38-.48 0 .02zm58.88 29.9c-7.6-2.13-5.57 6.07 0 0-1.87-.52-1.48 1.63 0 0zm-105.92 11.78c-13.32-6-1.55 9.43 0 0-1.82-.82-.5 2.95 0 0zm184.05 142.8c17-4.83 1-4.87 0 0 3-.84.42-1.98 0 0zm-28.4 29.1c-1.85-7.4-13 5.96 0 0-.13-.46-1.52.7 0 0zm-13.8-158c-5-2.47-7.7 17.22 0 0-.2-.06-.96 2.22.02.03zm-186.55-20.14c-9.66 8 0 .25 0 0-1.2 1 .16 3.17 0 0zM492 130.92c3.06-7.63-.32-2.28 0 0 1.94-4.8-.23-1.74 0 0zm-43.84 119.4c5.08 11 10.26-4.9 0 0 .5 1.03 2.35-1.1.02 0zm-139.34-102.9c3 4 11.6-9.18 0 0 2.6 3.45 1.54-1.23 0 0zm191.82 183.36c0 10.57 5.18 7.47 0 0 0 3.08 1.67 2.4 0 0zm-35.17-88.52c-.64 2.27 25.9 3.16 0 0-.05.18 3.22.4 0 0zm42.3 8c-3.76-1.47-14.9 5.9 0 0-2.3-.9-2.1.82 0 0zm52.9 62.36c-.16 13.93 3.07 1.36 0 0-.08 5.48 3.57 1.57-.02 0zm-142.3-119.14c4.57 5.22 9.13-10.27 0 0 .17.2 1.06-1.2 0 0zm-33.6-69c-3.78-3.76-9.55 1.74 0 0-.95-.96-1.77.3 0-.02zM492.9 346.82c-5.76 4.16 3.57 7.7 0 0-1.1.8 1.72 3.72 0 0zm5.33-110.73c6.66-7.08-.7-1.48 0 0 1.5-1.6-.37-.78 0 0zm32.68 46.6c-2.64-9.25-5.28-.3 0 0-.47-1.7-1.08-.08 0 0zm-16.43-27.35c-7.52 1.9-4.1 6.24 0 0-1.77.45-1 1.5 0 0zM375.16 129.8c.12-1.25-1.73-.56 0 0 .1-.88.5.2 0 0zm34.78-12c3.52 2.1 0-13.6 0 0 .24.1 0-1.8 0-.05zm37.5 42.8c-2.5 4.83 13.55.75 0 0-.1.18 1.46.04 0-.05zM573 235.9c1.9 2.75 10.82-1.9 0 0 1.5 2.23 1.85-.34 0 0zm-114.32 86.9c0 4.4 14-5.44 0 0 0 .36 1.56-.6 0 0zm93.86-183.14l-5.54 5.18c2.65-.57 5.6-.86 5.54-5.18zM468.64 238c.36 4.5 10-.72 0 0 .3 3.66 1.16-.06 0 0zm82-78.22c4.93-1.06 4.93-1.06 3.36-4.68zm-81.4-26.48c2.08-3-9.4-6 0 0 .32-.4-1.24-.82.04.02zm7 109.76c1.7 4.14 3.26 1 4.94.42-1.66-2.8-3.18-.24-4.92-.4zm119.5 130.3c-.78 4.07 12-1.05 0 0-.02.28 1.33-.1.03 0zM514 336.13c1.48 4.06-11.47-1 0 0-.12-.4-2.37-.2 0 0zm19.58-8.37c-9.88 1.9.94 3.64 0 0-1.1.24.15.5.02 0zM459 273.56c7-1.13 2.24-7 0 0 1.77-.3.56-1.87 0 0zM488.12 290c0-6.6-6.57-4.44 0 0 0-2.12-1.64-1.07 0 0zM451 246.63c4.2 4.5 6.5-7.66 0 0 .22.26.8-.95 0 0zM343.48 127.28c-6.73-3.9-3.4 4.45 0 0-1.27-.73-.54.72 0 0zm116.52 188c13-4.22-.56-3 0 0 2-.65-.12-.7 0 0zm-115.56-151c1.27 4.25 9.15 5.25 0 0 .35 1.18 1.68 1 0 .03zM446 251.5c-1.53-4.28-8.22-2.76 0 0-.7-1.84-1.84-.6 0 0zm128 58.2c0 4.68 6.82 3.76 0 0 0 1.4 1.52.84 0 0zm-58.87-136.36c-.74-1.3-10.76 5.34 0 0-.2-.36-1.43.7 0 0zm.58 147.1l-4.85-.66c1.37 3.36 1.72 3.4 4.85.66zm27.3-59.14c-.1-1-11.57 0 0 0 0-.32-1.56 0 0 0zm6.2 10.23c-3.8 4.3 6.6 3 0 0-2.3 2.6.93.45 0 0zM440.63 188.8c2.2 3.72 8.67 2 0 0 .6 1.05 1.55.37 0 0zm112 119.08c2.65-.52-1.68-9.9 0 0 .23-.05-.3-1.45-.05 0zm-93.36-39.7c4.87-.9.9-7 0 0 .93-.18.12-1.32-.05 0zm-73.3-140.77c-4.8.38 2.12 9 0 0-.48.05.23 1.23-.05.02zm104.6 106.86c0-2.28-15.15.8 0 0-.05-.26-2.05.1-.05 0zM478.08 670.73c.68-8.9 2.6-12.2-2.35-19.3-5.55 3.1-10.43 5.57-11.43 9.2q1.6 1.18 3.18-.9c0 3.4-12.24 19.33-13.75 22.45q-.8-4.22-3.36-3c13.84-11.33 5-25.3 19-27.86q-5.4-7.12.8-12-3.5 5 1.34 2.24c-2.46-47.12-29.54-2.24-35.4 19.12-13.3-23.2 36.8-54.5 33.1-72.16-2.95-.4-2.33 23.63-3.77-7.93 3.67 6.75 2.4 2.3 5.55 9.52 12.5-12.73 34.93-28.57 39.2-46.44-11.42 6.75-23.37 10.53-35.25 16.95q-5-3.9 3.67-9.7c-8.1 3-7.4 7-15.28 11.15 6.35 3.4 4.25.55 1.2 10.23q.94-8.08-8.46-1.67A28.64 28.64 0 0 1 467.6 554c-5-.76-16.15 1.6-17.72-5.64 7.7 3.43 28.85-7.6 30.2-6.57-1.86-3.76-26.82-1-26.5-4.72 8-.58 17.93 2 20.12-6.05 2.36.6 48.2-24.8 47.32-39.37-9.43 4.38 16.77-20.4 23.17-25.94 2.8 2.36-4.4 4 1.66 4-10.53 11.82-33.1 25-36.4 42.68 9.18-2.93 33-19.2 32.14-30.47a5.42 5.42 0 0 1-6 1.56c1.57-7.34 34-33.16 42-42.33-6.3-1.56-25.56 24-31.8 28.65.34-7.55 35.1-47.45 42.38-44.4q-5.16 1.54 3.13 4c-1.06 5.34-1.42.65-5 2.24 6.7 7.35 4.9 7 .78 20.68 2.47 2.1 24-33.12 24.2-34-8.3 5.14 3.52-10.64 3.6-10.6 7.82 4.8-23.23 56.18-25.32 64.1 2.9-2.62 10.84-19.12 12.48-18.35q-8.88 6.9-5 13c25.2-15.6 21.23-50.74 39-54.22-1 9.18-9.35 30-15.3 45.42 8.2-5.53 11.28-3.78 18.08-12.2 0 14.83-52.25 57.65-49.45 57.13C604.7 514.2 600 488.4 614.44 488.4c-2.72 1.83-14.2 21.9-7.23 24.87 9.95-12.92 4.65-10.92 11.73-10.65.63-2.46 10.14-23.66 1.2-15.12a9.9 9.9 0 0 1 2.45-7.1c2.06 4.62 4.1 10.8 6.38 2.27 4.62 11-17.56 39.3-22.1 44.63 5.46 8.53 26.28-36.65 31.92-37.14 0 39.17-82.8 84.48-80.65 97.74-5.7 12.27-1.52 12.32-11 25.5 11 1 18.52-19.5 25.77-22.68 2 8-12.85 24.35-13.68 17.87-6 8.5-24.87 30.87-25.88 21.6-1.26 3.16-21 50.66-10.57 50.66q-3.06-5.47.9-8.36a28.22 28.22 0 0 1 1.37 7.6c2.34-1.34 11.53-12.88 11.6-12.95.94 10.4-7.62 14.6-12.4 23C534 685.4 544 714.05 545 713.63c3.57-1.64 3.56-8.2 4.78-11.18 5 10.73 2.1 20.82 21 32-1-.1-12.38-3.06-13.38-1.93 14.35 6.4 31.82 41.1 43.8 51.88-2.28 0 .12 2.47-2.6 5.4-20.12-30.6-53.08-68.83-76.3-97.67-1.67 21.6 13.32 57.55 26.13 66.54-40.3 7-34.66-72.47-40.67-80.8 2.46-2.67 4.35 5.92 9.8.9-5.87-5.65 2.7-17.2 2.13-23.3.06.76-4.4 4.67-6.66 4.85 7.22-12.18 5.87-36.1 10.65-42.5q.52 3.45 2.6 2.43c0-4.1-.46-11.64-4-12.5-8.5 14-21.23 33.5-23 44 5.17 2.54-1-8.92 6.13.3-2.65 6.46-15 19.67-17.8 16.46 1.88 15.73 5.08 19.83 5.08 35.76a12.66 12.66 0 0 1-2.76-12.7c9.2.8-23.1 4.65-11.3.27-3.9 1.45 6.38 9.18-.33 11.55-.67-1.62-3.14-.3-6.13-4.14 2.05-14.06 1.58 2.22 5.05-2.5-6.55-9.6-4.1-12.92-.53-20.53a7.53 7.53 0 0 1 1.82 3.17c4.6-1.8-.25-9.13-.44-8.64zm83.68-182.35c-3-14.26 14.76-13.54-2.43-18.6-2 6.07-19.8 23.08-26.12 32.5q5.37-1.38 1.9 2.1c3.9-.9 26.5-16.08 30.08-15-2.33 5.22-.9 7.14-5.44 11.38q-.23-7.3-4.9-3c7.87 2.9-13 28.9-20.84 36 9 4.25 36-39 37.17-44.44q-2.4-8.25-9.42-.95c-.17-.8 2.32-1.05 0 0zm5 85c-1.17-.68 27.1-38 25.6-40.3-.88 2.42-4.13-16.22 2.3-16.87q.78 3.9-4.48 1 6.47 10.7 10.4-3.3c-13.7-19.53-42 66.3-43.2 69.83 1.23 1.3 8.95-2 10.82-2.35q-.1-5.1-7.5-.55c.87 2.86 6-19.46 6-7.48.3.22.04-.87.04.07zm-65.1-31.68c7-1.65 6.4-11.8 9.84-6 0-3 9.13-20.8 6.92-22.5-10.23 6.86-26.24 18.4-30.42 29.04q8.27-10.8 13.67-.5c2.47-.58-1.37-1.4-.02 0zm47-38.8c-19.35.56-30.83 18.34-34.57 33.73q8-2.26 2.58-5.85c15.86-.82 16.45-21.76 32-27.87-4.73.2-3.4 1.4.02.1zm4.62 71.3a54.13 54.13 0 0 0-11.93 22.84c9.12 4.73 8.7-11.6 12.48-7.28.6-.35.56-14.12-.56-15.55-3.58 2.3 1.2 1.52.04.06zm-27.65 35.42c5.37-6.8 7.8-15.22 13.8-21.82-9.4-.2-16.4 16.8-13.8 21.82 1.37-1.62-.5-.94.03.06zM569.6 461.6c1.38-1.72 19.7-13.58 12.85-17.86-5.88 7.68-12.85 14.56-12.85 17.86.92-1.15 0 .07 0 0zm6.45 3.5c.55.86-2.5 9.2-3.83 10.54q-2.13-1.6-3.58-.14c6.18 6.68 17.56-17.2 7.4-10.4 1.56 2.44 1.4-.94-.04 0zM531.6 622.47q6.7 4.34 6.23-12.13c-5.94 5.54-2.4 7.27-6.23 12.13.3.17.52-.65 0 0zm-46.36-74.93c-3.27-2.3-6.08-1.88-9.1.92 7.52 7.12 4.27 1.1 9.1-.92-1.24-.9-2.13.9 0 0zm92.15-55.22c12.7 0-.5 1.17 7-7.16q-6.17-4.5-7 7.16c2.35 0 1.54-2.9 0 0zm-97.87 116c3.58 0 7-7.5 5.72-10.56a26.57 26.57 0 0 1-5.72 10.56c.78 0 .8-.9 0 0zm45-117c8.9-10.65-7.3-5.82 0 0 1.08-1.32-3.7-2.9-.03.05zm-37.1 150.44c-2.78-1.08-4.5 9.3-4.6 10q5.37-3 4.6-10c-.1-.04-.7 2.73 0 0zM602 521.52c-3.9 4.6 0 14.46 0 0-1.5 1.8 0 3.06 0 0zm-13.82-46.22c-.77 9 11.38-3.23 0 0-.04.5 1.34-.37 0 0zM478.06 620.06c-.48 10.3 12-5.42 0 0-.06.37 1.2-.54 0 0zm129.6-148.93c.76-7.92-7.5-1.8 0 0 .12-1.35-1.5-.36 0 0zm-67.14 157c-1.36-11.9-3.65.72 0 0-.24-1.94-.8.18 0 .02zm44.3-138.5c-.8 3.15 16.67 2.17 0 0-.12.45 2.05.3 0 .03zM519.4 724.6c-1.4 2.33 10.38 13.9 0 0-.4.7 1.6 2.12 0 0zm50-259.8l-3 5.1c2.87.6 4-1.16 3.04-5.1zM542.7 604c.9-2.78.4-3.28-3.45-3.53-.45 2.84 1.94 2.7 3.45 3.53zm75.47-152.55c-7.47 10.36.6 1.8 0 0-1.3 1.78 1.07 3.28 0 0zm-32.3 57.5c9.6-2.4 1.1-4.8 0 0 2.13-.55.35-1.57 0 0zM599 479.78c.77 1.12 9-5.1 0 0 .25.3 1.26-.7 0 0z"/><path d="M638.78 490.16c-2.9.25-27.94 43.35-31.9 37.14 4.48-5.28 26.6-33.83 22.08-44.63-2.28 8.52-4.32 2.35-6.38-2.27a9.9 9.9 0 0 0-2.46 7.1c9.7-9.25-.53 12.55-1.2 15.12-7.07-.27-1.77-2.27-11.7 10.65-7-3 4.5-23 7.22-24.87-14.47 0-9.75 25.8-25.1 14.24 5.35-1 34.7-34.65 49.44-54.2v34.08c-6.36-15.37 0 7.2 0 7.64-2.1.18 0-.16 0 0z" class="cls-1"/><path d="M638.78 534.23c-1.2 1.9-12.57 23.16-15.56 19.83 0-24.58 1.24.57-4.75-7.63 7.56-13.65 12.45-28.44 20.32-42.16 0 8-10.3 21.56-9.24 25.2a28 28 0 0 0 3-1.88c-.82-.6 1.55 12.36-5.2 3.35.12-.27 1.8 6.74 2.3 6.9q11.88-24.82 9.17-3.6c-2.2 3.4-.05-3.15-.05-.02zm-8.9 5.2c-2.5-.93-3.4.96-4.55 2.76 3 1.7 3.14-1.73 4.54-2.76zM638.78 280.38c-8.84-3.1-13.6-52.8-20.84-43.9 1-19.77 15.92 10.08 15.56 9.15q7.93 6.08-1.88 6.6c7.9 8.17 7.16 13 7.16 28.15-2.53-.88 0-5.68 0 0zM638.78 403.2c-2 19.7-8.5-17.23-3.7-16.77 1-2.32 3.7 21.65 3.7 16.77-.2 1.87 0-4.3 0 0z"/><path d="M638.78 524.83l-9.18 13c-.5-.16-2.17-7.17-2.3-6.9 6.76 9 4.4-4 5.2-3.36a28 28 0 0 1-3 1.87c.32 1 9.24-30.34 9.24-4.62-3.02 4.35.04-3.32.04 0z" class="cls-1"/><path d="M638.78 375.58c-6.17 1-5.33-11.35 0-11.75v11.75c-1.03.17 0-3.92 0 0zM638.78 489.58c-3.64-1.14-4.17-9-4.17-12.15q6.4 4.54 4.18 12.15c-2.97-.93 0-2.36 0 0zM4.16 828.63a16.28 16.28 0 0 1 11.75 5.3q-14.4 5.87-11.74-5.3c3.38 1.22 0 1.76 0 0zM638.78 236.3c-6.8-9.32 0-7.36 0 0-1.28-1.74 0-1.95 0 0zM638.78 354.42c-2.64-1.55 0-10.75 0 0-.78-.42 0-1.76 0 0z"/><path d="M638.78 219.86c-5.87.77 0-10.3 0 0-.88.14 0-1.76 0 0z" class="cls-1"/><path d="M638.78 291c-3.8-6.3 0-7.3 0 0-.9-1.55 0-1.8 0 0zM409.7 618.42c-14.23 17.84-25-11.2-46.53 8.38 2.6-7.5-32.24 4.28-37.84-5.14-.73 1.55-.15 6.07-.4 6.27-17.5-12.42-10.86-6.2-24-2.86 0 .3 14.7 5.74 16.74 6.74-5.85 1-35.7-6.4-35.3.2 1.57 26.16 96.73-10.3 105.94-1.67-1.43-1.36-37.86 26.2-43 27.14 10.08-15.85-13 2-25.65 1.94-19.63-.1-53.2 6.58-69.08-9.7 5.65-3 43.77 8.12 45.5-.56-4.2-3.1-4.6-5.58-12.17-8 2.87 4.27 7.4 2.7 5.2 7a9.64 9.64 0 0 1-9.56-3.7c10 1.13-8.5-2.37-7.37-2q-3.1-6.38 4-8c-5.7-3.48-32.67-31.2-39.86-29.5 0 34.23 23.32 13 32.53 31.78.57 1.16-49.3 9.4-49.63-12.08-2 .82-5.53 6.1-4.52 6.3-2.4-4.13-4.16-8-7.72-11.2-4.68 24.15 71.15 43.8 93 47.35-2.77 16.26-15.9-.27-20.94 3.1-4.3 2.9 4.75 5.24 4.14 4.5-10.9 8.1-96.17 32.66-97.17 24.54 1.27-.46 9.6-5.7 9.64-5.6q-4.5-4.2-8.9-8.5a19.2 19.2 0 0 1 12.74-.2q-3.52-5.4 3-5.76c-7.65-4.28-52.52-32.2-45.56-40a22.34 22.34 0 0 1-8.83 9.3c.34-3.42-.5-6.93 1.47-9.84-6.6.85-1.63.52-6 5.82-4.23-3.66-12.23-8.23-10.57-16.3 2.38 3.08 13.83 2.93 11.2 10.2 4.2-3.6 3.66-5 7.14-8.22-5.55-1.17-17.57-4.64-18.5-12.2-9-.46 72 17.73 65.2 37.1 2.66-.85-54.57-48.87-66.37-58.32-5.36-4.3-34.34-31.9-24.7-46.6 7.3 4.12 34.08 41.77 46 21.2-12.37-5.67-35.62-34.1-53.15-35.7-.54 2.82 2.07 1.24 1.17 5.92q-4.43-6.32-7.9 0a100.88 100.88 0 0 1 19.35 5.52c-23.6 0-6.85 18.28-9.48 33-16.37-12.24-18.65-28.88-16-47.48-36 4.28 13.25 53.9 2.25 57.7-4-7.1.45-14.7-10-15.62a56.07 56.07 0 0 1 3 17.8c-5.26-10.7-9 51.87-6.6 52.87C87 617.06 86.63 660 99.24 671.07c11.06 9.72 29.47 9.54 38.8 14.3 21.1 10.8 25.8 24.47 58.1 24.47-14.84 27.63-14.78 38.6-26.66 68 26.83 5.17 56.6 12 75.33 14.37.3-1.76-2.17-1-1.36-2.6 5.78 2.42 6.74 7.36 23 6.54Q263 793.7 266 791c7.9 4.3 1.08 6 11.4-1.8-2.45 6.12 15.68 7.5 21.7 6.6-6.44-6.7 4-16.23 4.45-21.17-7 12.56-21.16 5.54-19.84 13-.24-.25-9.13-5.5-8.92-5.08 5.23-2.5 14.05 6.85 12.8-5.74-3.2-.4-2.22 7.35-5.95 1.58a10.3 10.3 0 0 0 3.07-3.46q-14.4-3.1-12.5 9.1c6.74.36-21.68-19-21.68-18.63q5.5 9.66 8.76-4.5c-5.65 1.2-11.87.83-17.4 2.43 5.56 4.5 2.3 2.83-1 5.87 1.56 5.9 7.22.9 4.94 5.7a8.86 8.86 0 0 0-7.14 1.7c-.08-.4-1.5-16.57 1.83-19.9-4.56-.14-11.06-.07-14.45.13q2.93 2.15.3 4.27c3.9 1.58 6.44 1.5 7.7 3.57-9.34 6.78-14.43-6.7-17.1 4.47-3.4-10.75-17.53-15-20.1-3.6-3.85-5-2.8-5.84 2.92-9.43-2-6.76 2-13 9.64-21-1.1 1.15 46.58-42.92 45.35-20.14-10.6-3.56-23.77-4.17-31.62-13.06 21.22-4.26 195.4-77.27 186.56-83.48zm-62.34 10.74c-10.1-5.2 9.45-5.84 0 0-2.76-1.42.95-.58 0 0zm30.94-1.63zm-243.94-65.1c-1.3 6.7-3.1-2.13 0 0zm-6.36-9.07c2.8 4.7-5.45 7.38 0 0 .87 1.4-1.4 1.9 0 0zm-43.62 71.72zm88.3 45.2l-5.23-2c2.18-2.66 2.7-2.47 5.24 2zM163.14 655c-2.47 3.72-8.9-9.76 0 0-.34.53-1.47-1.6 0 0zm-9.66-10.87c6.86 6.82-2.76 12.05 0 0 1.53 1.5-.57 2.48 0 .02zm-5.58 4.5c5.16 10.16-4.88 3.82 0 0 .73 1.48-.9.72 0 .02zm-5.3-1.5c1.63 2.1 1.2 5-1.44 6.9zM124 609.44c-.63 3.7 4.56 3.33 10.5 5.7-8.27 4.14-12.42 5.53-10.5-5.7zm-4.14-7.62zM109.4 641c1.5-5.08-5.06-9.56 8.7.95-1.88 4.82-1.3 1.38-8.7-.95.08-.2 2.4.76 0 0zm1.6-20.46c2.7 11.4 11.56-1.85-3.52 4.44.52 7.4-.6-21.85 3.52-4.44zm-7.5-37.4c4.25 12-3.2.77 0 0 .6 1.6-.32.1.04 0zm2 41.85c-2-1.08-17.24-32.35-13.87-33.57C99 588.75 108.7 619.8 105.5 625c-.43-.26 1.05-1.66.04 0zm2 0c11.2 5.06-1.74 5.14 0 0 1.4.64-.32 1 .02 0zm16.63 50.2c-.32 2.54-15.38-20.9-17.54-25.12 7-2.9 22.12 13.88 24.3 17.52-18.5-4.1 16.9 17.75-6.77 7.6-.03.38 2.47 1.08 0 .02zm11.6-1.68zM181.27 696c0 .22-43.12-18.3-51.06-35.7 7.92-2.55 21.37 15.2 20.68 6.45 6.46 10.57 33.12 28.37 30.4 29.25.03.3 1.47-.46 0 0zm86.07 85.64c-2.77 13.55-2.4.86 0 0zm-9.93-10c.13 6.6-5.9 1.53 0 0 0-.02-1.55.36 0 0zm-17.58 5.68zm-1.4 4.82q-1.37 9.1-6.88-2.57c8-4.4-.54 1.5 6.88 2.57-.5 1.47-3.6-.52 0 0zM232.15 771c-1.8-4.27 4.76 2 4.88 3.05-3.9 2.37-11.78 2.07-4.88-3.05-.04 0-1.22 1 0 0zm-3.2-.77c-4.48 7.7-2.37-.1 0 0zm-8.95 2.93c4.78-3.18-3.3.75 3.2 3.6-1.94 2.5-10.26 1.1-3.2-3.6zm-9.3-9.78c10.95 3-1.28 5.66 0 0 1.8.5-.42 1.86 0 0zm-2.54-3.52c2.2 1.87-1 19.57 0 0 1.54 1.33-.16 2.65 0 0zm-.23 10.1c0 4 5 .66 5.88 6-1-.53-13.86 1.67-5.87-6 0 1-2.77 2.66 0 .04zm-27-12.67zm2.22 8.22c-12.34-1.1.23-4 0 0-1.94-.17 0-.96-.04 0zm2-15.13c3-4.43 3.2-4.56 5.24-2.8-.72 2.75-3 2.56-5.25 2.78zm9.55 3.75c3.9 8.54-9.37 2.64 0 0 .23.5-.7.18 0 0zm1.68-13.4c-12.9 8.8-3.15-.67.8-11.92q4.9 5.8-.8 11.92zM222.72 710q-10.35 12.22-20.63 24.5c-11.9-24.9 19-22.54 20.62-24.5zm82.93-43.17c-9-1.35.48-3.5 0 0-1.26-.16.07-.5 0 .03zm43.17-8c-1.2-2.43 8.6-7.58 0 0-.3-.55 1.37-1.14 0 .07zM403 625.66l4.82-2c-1.2 3.72-1.7 3.96-4.82 2zM207.1 700.4zM198 161.15c-3.38 15.12-2.3-.6-4.8.82 3.78-2.15-18.52 24.16-16.85 29.05-2.23-.8-3.34-.67-4.75 1.15-8.4-12.43 33.27-54.1 37.15-63.22q-2.84 3.26-5.33-.1c25.64-14.62 52.65-58 89.14-66.5a18.88 18.88 0 0 1-13.74 10.58c12.64-2.5 48.94-8 51.32-17q-3.1 5.78-5.47 2.56c8.9-10.83 21.15-10.28 33.2-8.1-3 1.13-13.44 5.1-15.86 5q-1.4-2.4 2.6-2.9c-8-3.3-6.28 6.5-8.6 9.36 7.4 3 30.43 6.35 28.16 10.93 1.12.45 15.33-3.9 19.23-3.56-3.8 4.53-8.63-3.06-11.27 7.43 15.48 3.8-.73-1.5 5.74-3.4 3.54 8.84-6.54 8.46-7.94 1-22.6 8.06-22.25 22.74-44.6 37.43 1-14.64 24.47-17.26 26.6-30.5-29.6-15.2-124.7 63.73-151.5 84.72a7.35 7.35 0 0 0-2.53-4.7c7.4-4.42 40.24-27 41.1-30.83-13.9-12.47-30.74 21.74-40.35 25.12a40.14 40.14 0 0 0 1.06-4.94c-1.5.05-5 10.26-1.72 10.6-.4 1.82-.87-.12.02-.03zm61.2-67c1.72-.44 9.37-4.26 10.16-3-16.3 12.7-37.94 26.92-45 35.1 7.87 3.38 14.2-9.77 22.17-2.25-.54.43 8.08-18.57 9.52-6.75-.22.36 23.62-23.32 25.9-21.73Q280.33 99 279 97c2.06-2.43 19.2 0 17.3-6.43q-6.1 3.25-7.4-.76c1.16-1.3 10.75-12.57 11-12-4.65-12.48-50.57 17.8-50.42 24.68a19.26 19.26 0 0 0 9.75-8.4c1.46-.34-1.43 1.76-.05.04zm44-5.28c4.62-1 13.17-4.23 15.74-9.5-5.9 3-12.77-3.1-15.75 9.5 3.3-.76 1.5-6.43 0-.02zm-67 37.32c2 4.8 12-8.9 0 0 .07.18 1.33-1.03-.02-.03zm93-56.37c6.5 9.48 6.52-3.64 0 0 1.6 2.32 2.33-1.32 0 0zm-29.73 20.1L302.7 85c-3.43-.16-4.76 2-3.22 4.92zm51.7-15.2c-1.5.13-3.48-2.6-4 .87 1.6 1.78 3 2.12 4-.88zm-42.94-2.2c7.5 3.38 2.8-3.3 0 0 1.4.62.9-1.05 0 0zM118.08 487.13c-.87 5.48-34.9-6.75-26.55-4.48-3.05 13.2 16.25 34.1 13.2 42.78q-2.78-7.3-9.35-3.24-.8 3.28 4.52 2c-7.35 7.65-20.23 7.65-29 16.34-.9-14.54 15.32-12.43 24.22-20.8a3.84 3.84 0 0 1-1.4-4.34c-9.05 2.5-8.6-2.78-12.4-2.72-8.16-21.12 10.54-35.14 9.26-55.95-1.32-21.53-17.45-30.53-20.63-46.3-3.5-17.28-3.82-28.74 16.64-51.36 2.93-3.25 49.57-42.06 55.08-33.46-.25-.37-29 28.3-19.12 13.67.48 4.6-44.88 36.4-51.5 43.6 11.08 8 16.35 20.05 27.07 28.28a8.37 8.37 0 0 1-8.28-.1c9.2 10.18 5 10.9 8.37 23.16 6.87 25-12.4 31.94 10.18 33.47.2 2.3-4.8 7.1-5.6 6.35 2.7.87 15.23 11.2 15.28 13.1-.43 2.74 0-.43 0 0zm-39-82.28L66.3 390.12c-5.54 8.27 5.7 17.5 12.8 14.73-5.93-3.85-.8.3 0 0zm8.06 2.9c1-.72-16.34-18-15.87-24.12-7.92 6.78 11.57 19.65 15.87 24.13.15-.1-1.78-1.87 0 0zM196.3 103c3.3-.74 13.2-10.82 12.5-2.72 6.73-2.1-1.7-9.83-5.13-10.7 4.54-5.76 10.2 1.5 15.12-4.67-9.86 1.34 7.75-11.3 9.32-13 5.82 1.4-14.12 23.9-13.72 23.22 5.1 0-45.82 61.56-55.52 60.5q1-2.58-.92-2.35c-.75 13.12 26.82-10.66 25.53-10.48-2.72-5.2-50.35 64.44-56.88 73.14 1.37-8.72 2.13-9-3.56-2.73 1.1 1.1 4.45 12.27-4.16 14-1.8.38 1.43-16.63 5-20.34-.46-.86 10.2-22.77 12.46-23.74a53 53 0 0 0-.9 7.42c4.72-4 7-5.78.38-3.85q6.93-3.8-.38-7.48c-5.2.58 1.95 4.38-3 4.37-2.08 0-2.35-8.27-2.2-9.54-.67 0 10.82 18.86 2.56-5.86a14.38 14.38 0 0 1 2.45 6.33c5.23-5 2.68-10.25 5.9-16.7 4.4 3.83 3.64 15.44-2 17.25 11.15 3.23 0-15.92 11.48-3 .87-2 .27-16.75-.23-19.3 2.64 0 13.22-9.66 13.76-12.45-3.44-2.92-4.55.47-6.16-1.24 3.35-1.52.75-6.56 6.14-12.85 1.47 16.83 18.7-14.53 22.3-23.56q1.17 4.24 5.72.78c.04 16.34 1 5.34 4.12-.48zM181 117.56c3.84 1.3-2.6 7.08 8.08-2.2-1.24-1.92-1.38.75-4-3.2-1.7 1.85-8.1 13-4.12 5.4.3.07-.45 1 .04 0zm-5.86 15.8c3-4.64-.2-14.12 0 0 .78-1.15 0-3.2.04 0zM205.82 101c-4.8.68-1.4 9.7 0 0-2 .25-.2 1.28 0 0zm-49.92 64.06c2.36.75 5.7-16.47 0 0 .4.12.77-2.23 0 0zm12.16-22.4c2.78-7.27-2.87-6 0 0 .77-2.03-.88-1.84 0 0zM496 439c5.1 6.57 10.67 15.6 18.26 13.65-3.66 3-8 6-10.7 10 5.7.28 17-3.42 17.42-11.7-5.52 2.07-12.8-4.78-10.47-12.4-5.93 7.12-4.86-.5-10.8-1.46 4.32-17.3 13.1 5.63 14.8-3.18 11 25.27 14.24 21.1-12.1 44.23 2.46-2.17-19 9.4-20.57 7.86 3.3-6.77 15.33-15.13 21.14-19.83 1.9 1.18-21 10.1-23 11q-1-5.93 4.88-4.15c-1.36-9.84-20.3-14.43-7-24.26 4 6-9.68-3 2.95 13.75 1.78-9.38 1.54-6.34 2.53 3.47 11 .88 2.87-4.9 14.06-2.85-8.56-9.55-3.32-13.73-9.88-28 2.4-2.32 6.2 3.12 8.48 3.88zm-.2 10.46c-3.75 8.94 7.72 10.73 8.36 6.6q-.8-7-8.36-6.6c-.7 1.54 2.27.64-.03-.03zM107.66 172.92c-3.4-4.6-3.12-1-9.32-.1 3.6-20.8 49.08-51.65 52.52-76.16 4.24.64-2.2 3.17 3.85 4-.9-7.9 6.12-8.38 12.8-9.58-3 6-4.4 6.76-6.77 11.48-12.55-10.77-55.5 72.94-53.07 70.36zM465 92.08c-14 3.3 5.75-15.44 8.43-16q-.33 3.85 2.5 2.47c-.14 1.12-9.7 6.34-7.94 7.65 2 1.5 48.74 8.62 46.14 20.16-.8 3.5-49.52-15-49.13-14.3-2.76.67.56 1.06 0 .02zM373.23 91.13c-9.73 2.68-42.2 29.65-45 27.7C340 97 380.6 94.16 381.63 74.07c5.3 2.1 5.78 1.8 9.55-3.77q-2.26 9.7 9.84.53c-.7.54.05 7.78 5.55 2.8 4.27 3.23-4.88 8.36 3.83 9.43.16-1.54-2.3-7.22.28-7.82a18 18 0 0 1 5.32 3.6c-8.22 5.85-11.6 10.74-16.48-5.8-7.05.94 5.7 19.18-6 1.4-2.62 3.64-4.5 5.58.08 3.74 1.02 7.55-16.53 9.82-20.37 12.95zM235.68 160.45c-9.16-1.52-13.14 27.4-23.84 33.12q4-6.1-.1-6.46c-7.35 33.33.5 5.93-8.85 11 9.1-10.2 11.8-24.17 18.7-35.3 2 1.16-1.32 3.64.88 4.43 4.46-13 6.78-9.38 12.3-15.17-1.64-1.8-2.07 1.82-4 .57a17.65 17.65 0 0 1 7.5-9c1.7 7.25 5.5 3.15 6.18 3.68-2.1 4.3-6.27 9.2-8.78 13.15zM367.77 611.33c-6-4.45 11.2.92 8.64 8.68-2-1-57.3-1.06-33.1-11.42-7.12-7.3-5.72 2.9-10.18-.8.27.22 15.3-16.5 15.3.83q4.74-7.32 13.23-4.62-18.82 6 6.1 7.36c-.6-.47-4.47-2.24.02 0zM219.16 304.93c-2.67 1.38-2.9 8.05-3.73 8.77-4.7-7-4.94-3-2.54-6.77.6-.94-12.27 1.34-9.24 1-.3 2 2.25 1.8 1.77 3.48-15.9-4.6 19.74-9.93 23.78-10.1 7.3-.34 37.77 3.4 44.27 9.33-46.56 2.86-4.88-2.86-10.93 4.5-7.8-2.68-19.6-10.78-13.16-4.5q-15.06-3.17-30.23-5.7c-2.72 1.4 5.04.92 0 0zM439.3 76.3c.64 4.24 9.63.8 10 .3 0 6.56-.82 9.57-.82 13.8-7.73-1.45-13.65 2.9-29.74 1.14q9.08-2.92 5.44-6.3c-1.8 1.4-16.3 19.38-19 10.5 4.14-1.93 37.22-24.17 34.14-19.45.16 1.2-1.02 1.5-.03 0zm-10.52 7.12c-8.07-2.34-3.67 4.23 0 0-2.1-.6-.84.97 0 0zM598.5 575.33c3.53 8.4 7.86-14.45 9.9-19.42q-2.54-1.8-4.55 2.6c-7.28-10.15 15.84-13.48 15.46-8.72-.38 4.94-9.52 5.27-6.34 12.2a6.86 6.86 0 0 1 5.7-5.1c.53 9.07-17.66 28.86-23.08 35.53-1.35-2.2 2.48-16.9 2.9-17.07.7 1.6-.26.1 0 0zM102 500.76c-.64-2.48 7.83-11.87 7.13-10.73 10.78 5 26.32 3.92 31.7 16 2.17-10 15 13.4 14.35 13.93-12.87-11-36.12-24.88-53.18-19.17-.3-1.17 1.6-.57 0-.04zM598.88 230.23c2.37-1.43 25.63 21.8 25.92 22.7-13.85 7.62-1.5-2.55-8.78-.9.54 8.24 4.9 8.7 4.28 13.3-18.86-1.58-7.18-17.35-8.76-20.34-6.13 2.17-3.88 2.6-8.57 7.64-3.47-2.87-1.83-.8-5.72-4.23 8.1-3.7-1.08-8.6-.52-10.9q3.26 5.14 5.36 2.1c-9-3.4 9.05 2.58-3.22-9.38.45-.22 2.54 2.5 0 0zm4.92 9.86c7 9 3.42-.83 0 0 1.3 1.67.88-.22 0 0zM392.75 608.4l-10.43-2.3q1.14 5.15-2.23 2.7c.25 1.84 12.4 4.53 14.66 6.82-10.78 11.57-25.2-2-18.3-14.72.83.1 32.7 8.94 32.42 6 .9-.42-20.56 13.82-16.12 1.52-3.22-.72-.4 1.05 0 0zM226.1 69.57c-1.12-3.36-7.12 2.16-12.25 2.58a11.54 11.54 0 0 1 8.1-7.48c-4.38.28 29.77-10.5 41.8-5.3-4.13 8.3-35.47 10.06-37.64 10.2-.16-.5 1.55-.1 0 0zM253.24 282.9c-18.37 7.1-43.84 4.78-63.92 4.78-.85-8.43 64-8 63.92-4.8-2.37.93 0-.2 0 0zM291.62 287.35c2.3-2.35 2.87-6.55 3.72-5.48 1.73 2.2 15.8 17.38 20.25 18-.66-4.85 3.8-3.82-2.36-7.4-.45 0 13.07 22 13 20.8-5.18-2.1-22.52-18.8-19.47-19.75 4.28 4.5 3.78 4.5-1.45 8.9-5.84-10.5-7.9-9.3-13.7-15.1 1.26-1.26 0 .03 0 .03zM118.08 487.13c-.16-6.35 29.15-4.55 36-.1-2.1.7-2.2 0-3.85-1.55a9.22 9.22 0 0 1-2.8 4 6.9 6.9 0 0 1 5.3-1.94c3.38 7.92-33 2.05-34.67-.36 0-.5.67.87.02-.05zM194.85 76.42c-6 1.07-8 13.9-11.24 13.9-2-14.5 25.85-25.4 27.34-24.16 3.4 2.8.7 10.68-2 12.06-1.72-6.6-5.54-8.42-8.77-1.58 4.18 2.2 7.1-14.9 2.5 5q-.84-3.45-4.38 0c3.05-10 .68-2.93-3.44-5.27-.4.12 1.48.88 0 .05zM417.8 574.6c1.34-.6-7.74 7.25-27 3 5.14-12.15 24.06-5.87 27-3 .44-.2-1.8-1.7 0 0zM107.58 172.85c.83 14.34-13.23 18.2-4.22 19.33 0 2.93-2.5 14.24-9.23 10.6 7.3-2.65-.3-26.2 7.5-28.93 1 4.5-2 6.07-2.1 11.05q13.34-6.97 8.05-12.05zM178.37 164.3c0 .23-46.3 57.48-50.05 58.26 12.68-21.8 29.5-43.76 50.05-58.25zM566 636.9c-3.67 1.07-6.7 16.72-9 22.93-3.68-12.22 10.17-6.73-2-13.37-4.6 3.34-5.23 4.94-7.3 12.88-16-7.68 16.35-17.4 10.4-14-1.45-4.05-5.83-5.34-8.84-8.33 1.55-2.8 19.98.1 16.74-.1zM423.35 590c-.22 4.33-3.7 6.56-7 8.9-.07-.06-21.48-14.2-24.2-10 2.63-4 25.6.27 31.2 1.1zM215.17 657.65c3.6 1.72 27.22 10.64 24.1 14.16-8.05-.38-28.2-2-24.1-14.15 1.47.7-.6 1.8 0 0zM97.46 510.63c12.65-11.22 35.23 8.18 41.08 7.1-11.28 2.07-29.4-4.8-41.08-7.1zM181.4 491.1c-4.34 0-31.43-15.5-31.18-16.5 17.2 2.52 22.4 6.66 31.18 16.5zM210.54 669.88c-6.12 1.8-24.85-6.63-15.9-15.3 4.95 4.97 14.23 14.07 15.9 15.3zM173.9 583.12c-3.05.9-10.62 10.73-9.9 9.5-4.74-3.47 4.57-1-5.45-6.43 4.3-4.94 7.8 4 9.35 1.8a7.4 7.4 0 0 0-.8-9.2c-8.06 4.37-.88.76-2 7q-6.78-4.16-3.88-12.16c.4-4.3 12.6 9.45 12.7 9.48zM576.83 413.84c-1.62.44-13.44-21.68-11.5-27.1 2-5.6 10.62 23.16 11.5 27.1-.46.16-.4-1.84 0 0zM471.38 577.17c-6.65-3.66-19.07 10.38-32.3.23 2.58-5.27 27.55-9.18 32.3-.23-.57-.3-.76-1.4 0 0zM265.86 153c-12.12 6.45 15.25-12.38 16.3-10.9-5.1 3.6-27.95 29.56-30.15 29 2.85-11 14.9-15.44 13.86-18.14-1.2.72.1.32 0 .04zM253.42 578.7c-.15-8.63 43.6 4.68 43.77 3.88l-43.78-3.88c-.05-2.56 14.58 1.3 0 0zM256.63 342.06c-6.62-5.88-10.72-4-18.38-8.36.63-2.33 33.44 5.16 37.88 6.9-.63 2.27-16.28.77-19.5 1.46-2.1-1.87.67-.15 0 0zM408.4 557.3q-2.7 7.67-10.42 5.83c7.1-8.22 14.45-11.35 23-17.65 1.64 4.3-11.54 12.08-12.56 11.82-1.7 2.16 3.2.8 0 0zM530.8 656.28c-5.5-13.15 5.68-10.78 10.3-16.77 1.32 1.5-10.1 16.56-10.3 16.78zM210.45 670c5-5.85 14 4.5 9.6 11.06q4.87-2.32 2.46 1.63c-6.96-2.02-8-8.88-12.05-12.7zM280.92 164.6c-1 4.16-5.64 13.57-10 18.82a6.52 6.52 0 0 1-4-6.8c.08.46 7.6-8 14-12.02zM524.1 211.58c-.77 1.35-15.84 8-20.62-4.2 4.82 0 20.56 4.55 20.63 4.2.34-.58.58-3.1 0 0zM560.35 631.7c.8-3.1-2.44-8.6 2.08-14.48-2.67 3.47 8.2 4.4 8.7 6.16q-5.45 13.66-10.78 8.32c.15-.56.2.2 0 0zM565.93 637s10.64-14.54 11.25-15.52a52.26 52.26 0 0 1-11.92 23.6c-7.62-3.56 3.74-3.5.67-8.08zM467.14 413.6c.52 1.48 7.94-20.66 6.24-15.9 8 17.23 0 4.2 3.84 10.6-19.2 14.6-6.2 5.86-10.08 5.3-.8-2.35-2.4-.36 0 0z"/><path d="M194.7 754.12c.57-.4 7.17-6.7 7.74-9 .22 2.52.84 12.46 6.8 12.4q-.73-1.26-1.15 2.25 1.43-1.46-2.8 2.4c-1.07-3.07-9.64-4.24-10.6-8.07.2-.1 0 .02 0 .02z" class="cls-1"/><path d="M209.25 757.55c-6 .07-6.6-9.87-6.8-12.4 8.14-1.15-4 4.66 8.63.15 2.42 5.05-8.4 0 4 5.33a20.48 20.48 0 0 1-7.5 1.26c-3.45 8.46 13.56-4.82 1.63 5.65-4.5.05 1-.83.05 0zM227.7 315.45c1.87-5 4.34 14.17 8.25 15.08q-.14-3.1 1.78-2.38c-2.58 14.24-17.9-10.56-10-12.7-.54 1.36-1.52.4-.03 0zM167.54 91.14c1.92-6.16 5.9-4.1 9.73-10.8.34.2 1.32 13.3 2.42 5 1.46 2.28-6.16 14-5.62 13.95-6.77-12.92 1.7-1.9-6.54-8.16zM144.3 224.94a103.65 103.65 0 0 0-14.92 30.72c-4.42.57 9.94-34.72 14.92-30.72-2.9 4.82-.36-.3 0 0zM436.8 568.25c35.26 2.75-13.63 1.75-12.92 1.75q5.77-7.56 12.9-1.8c4.64.4-1-2 .02.05zM575.9 617.76c4.54-2.62 7.76-18.05 14.7-18-.22 3.8-14.08 23.55-14.7 18 1.35-.76.1.4 0 0zM111.54 234.8c1.06 5.4-.33 7-3.6 11.37-.05-.78 6.2-17.16 2.1-19.94 10.37.66 6.55 9.58 1.5 8.58.26 1.37 1.58.32 0 0zM539.38 235.1c-2.85-4.4 26.3-7.22 26.2-3l-26.2 3c-2.97-4.57 8.76-1 0 0zM143.42 295.5c5.58-.43 9.32-1.56 12.52 10.83-3.18-1-11.64-8-12.52-10.83 1.27-.1.8 2.6 0 0zM411.4 602.42c12.5-5.28-.13-1 7 3.2q-.33-6.4 7.53 1.73-9.6-4.2-10.36 3.26c-6.2-5.95-2.46-6.45-4.18-8.18zM263.34 137.7c4.1-.26-.92 3.42-1.94 7.3-10.4-1.3 2.35-15.7 6.53-16.5l-4.6 9.2c.92-.06 1.57-3.1 0 0zM569.73 611.52c-5.66-6.35 15.44 5.95-4.1 7.76 0-7.5 0-2.83 4.1-7.76-1.33-1.52-.92 1.1 0 0zM184.07 141.16c22-10.93-.8-.53 18.17-11.12.43.33-12.94 20.75-18.17 11.12 3.46-1.7.82 1.5 0 0zM394.13 100.42c1.9-1.35 7.8-6.6 9.68-5.1-6 8.82-8.5 8.9-17.2 11.3-.2-1.58 4.93-8.92 7.53-6.2 1-.7-1.4-1.42 0 0zM633.46 331.9c4.13 4.33-2.8 13.6-8.34 10.82 1.94-.92 10.16-11 8.34-10.8 3.06 3.2 1.1-.15 0 0zM451.3 90.53c4.2-1.43-2.8-8.12 5.75-14.26 0 4.75 1.62 22.36-5.75 14.26 1.7-.53 1.06 1.17 0 0zM182.32 609.66c1.87-1 12.55 5.72 12.24 5.44q-7.53.75-5.38 7.82c-2-1.05-6.5-11.34-6.86-13.26 2.87-1.5.3 1.7 0 0zM138.95 542.5c-5.08.6-17.93-2.38-21-9 4 .6 18.83 6.68 21 9-6.52.77-.8-.84 0 0zM589.45 576.15c-2.88-3.15 8.38-11.22 10-12.8 3.45 7.1-4.3 10.55-10 12.8-1.72-1.88 1.63-.64 0 0zM173.9 583.12c4.8 9.35 11 14.62 1.26 19.8 2.62-6.92-.16-15.14-1.27-19.8zM549 677.3c-6.22 1.62-9.1-4.2-8-10.3 15.36 10.24 7 9.45 8 10.3-1.37.36.24.17 0 0zM194.54 203.42c-6.55-2.24 1.26-9.62 4-12.2-.04 9.33-1.63 3.17-4 12.2zM111.78 408a31.28 31.28 0 0 1-14.94-11.92c3.13.34 17.22 9.58 14.94 11.92-3.27.25.22-.28 0 0zM139.1 274.3q-4.62-5.47 7.1-.1c-14.18 13.25-9.3.88-7.1.1-.52-.73-1.2.42 0 0zM305.2 793c4.6 1.24 15.8-5.68 15.7-.24-.15 6.7-15.7 3.08-15.7.24 1.12.3 0 0 0 0zM280.42 117.3a22.5 22.5 0 0 1-9.42 12.5c.8-13.8 1.22-2.65-2.3-5 8.1-13.86-2.7 6.57 11.72-7.5.05 3.42-2.23 2.17 0 0zM560 429.56q8.17-7.22 18.14-5.36c0 5.27-14.1 6.6-18.14 5.36 4.33-2.1 1.12.36 0 0zM417.86 625.84c.6-1.33 12.7-11.23 11.42-1.35-5.75 2-6.24 1.34-11.42 1.34.47-1.03 1.4 0 0 0zM101.58 530l14.6-10.25c-.6 2.88-10.77 17.24-14.6 10.25 4.66-3.25.15.3 0 0zM150.57 152.73c-12.16 11.33-.68-10.43.64-11.9 1.44.86-1.2 10.36-.63 11.9zM444.6 397.3c1.67 0-8.42-5.78 4.47-9.1a12.87 12.87 0 0 1-4.48 9.1c.4 0 1.2-1.75 0 0zM574.06 216.67c.5.37 13.74.7 7.9 7.53-2.07 2.46-7.14-7.28-7.9-7.53zM433.05 98.84c-2.1 1.16 9.35-10.65 9.66.76.14 5-8.8 0-9.65-.76.7-.38.85.8 0 0zM192.22 103.55c1.43-2.78 3.57-14.06 9.57-9.1-3.12 4.62-7.55 6.65-9.58 9.1zM235.58 160.54c10.8-3.24 6 1.42 3 9.25q2.52.67-1.8 1c-8.45-19.54 6.56.2-1.2-10.26zM625.42 355.05q4.1 6.9-.2 11.82c-3.3-5.15-7.06-11.82.2-11.82.45 3.38-1.18 0 0 0zM604.2 451.57c2.9-7.46 2.14-11.75 9-8.87q-3.86 13.9-9 8.87c1.2-3.12.2.2 0 0zM286.73 288c3.83 3.33-6.47-2.14-6.47-9.26 5.16 3.8 3 5.15 3.95.84 10.38 14.63-1.5 2.17 2.53 8.42zM460.36 514.2q4 7.62 5.26-2c.64.83-9.36 24.85-5.26 2 1.13 1.27-.63 3.53 0 0zM184.9 220.28a39 39 0 0 1-6.9 14.25c-2.32-2.52 4.64-15.6 6.92-14.25-1.92 2.53-.38-.2-.03 0zM444.28 535.1c-5.5-2.05-6 4.85-12 7.8.76-2.6 7.5-14.5 12-7.8-2.87-1.1-1.37-2.04 0 0zM191.92 630.22q10.44-6.58 9.5 5.18c1.38 0-10.15-5.36-9.5-5.18.87-1.8 1.9.53 0 0zM373.16 91.2c8 3 2.33.8-.3 4.5 3.4 1.76 9.6-2.18 9.78 5.34q-3.83-5.43-3.8-2.1c-20.72-3.7-.74-.43-5.68-7.75zM616 310.7c-2.26 6.9 4.43-15.43 4.83-6.52.12 2.68-1.23 14.45-4.83 6.5.88-2.76.1.32 0 0zM370.52 791.76c2.65 6.6-7.28 8.45-10.58 8.45 3.2-4.22 7-7.88 10.58-8.44 1.17 2.9-1.33.24 0 0zM168 655.83c10.56-15.43 1.92 7.45 10.6 4.6-.35.12-10.06-4.6-10.6-4.6 1-1.56 0 0 0 0zM587.65 576.55c-6.55 1.68-5.58 7.67-11.66 11.2-3.6 13.07 9.73-20.9 11.65-11.2-1.14.3-.1-.55 0 0zM570.33 421.87c-4.76 1.33-9.1 3.6-13.76 1.34 1.6-2.2 13-5.16 13.76-1.33-2.4.67-.05-.27 0 0zM497.84 708.25c.78 2.54 8.86 10.74 4 14.46-.3-2-6.2-13.67-4-14.45.66 2.15-.27.1 0 0zM420.78 229.88c6.46 4 5.25-4.5 9.38 5.65-1.88 1.58-13.74-2.6-9.38-5.65 2 1.24-.3.2 0 0z"/><path d="M288.2 782.06c4.1 5.64-6.12-3.74-4.47 5.5-8-8.12 6.17-3 4.48-5.5.18.24-.03-.06 0 0z" class="cls-1"/><path d="M266.2 770.27c5.32-9.35 3.23.68 0 0zM343.28 202.58l10.37-1.58c-11.05 10.68-5.34 4.2-10.37 1.58zM184.28 273.74c-7.4-.46-14.32-2.93-15.94-5.7 2.57-.4 15.28 4.15 15.94 5.7zM157.93 486.83q9.23 4.42 3.67 8.57c-.2-.27-11.64-3.9-3.67-8.57 1.78 2.17-.25.17 0 0zM457.64 636.44c2.33 2.8 1.73 17-2.63 15.85l2.64-15.86c1.04 1.25-.92 5.56 0 0zM468.08 342.3c-7.4-2.4-5.88 4.56-7-6.78 5.14-2.88 6.3 6.36 7 6.77zM592.9 393.34c-.56-1 5.37-13.23 6.77-13.88-2.15 6.1-1.35 9.92-6.76 13.88-.26-.44 1.43-1.04 0 0zM213.3 646.74q-6.06 1.53-9.32-4.8c2.88 0 9 .74 9.32 4.8-1.3.07-.03-.34 0 0zM254.63 270.14c-9-8.3 14.44 2.22 11.27-1l-11.27 1c-1.17-1.08 3.37-.32 0 0zM262.53 560.3c0 1.38 2.54 12.25-1.53 11.63-2.72-.42-.7-11.9 1.53-11.64 0 1.94-.42-.07 0 0zM499 672.56c-9.27 0-8.32-7.05 0 0-2.54 0-2.23-1.9 0 0zM222.26 758.44c-7.3 10.9-11-9.77 0 0-.6.9-3.26-2.9 0 0zM336.5 177c-.84 7.16-6.4 7.46-12.57 6.34-.17 3.66 11.17-5.14 12.56-6.34-.18 1.38-1.22 1 0 0zM292.1 777.88c-3.78-4-.34-6.2 3.9-4q6.94 6.2-3.9 4c-.7-.74 2-2.3 0 0zM555.86 637.5c-2.12-4.22-2-5.52 1.08-9 2.27 1.8 1.55 7.85-1.08 9zM494.94 414.28c4-.35 7.9-.7 10.58 2.84-3.52-1.12-7.87.75-10.58-2.84zM428.7 539.66c6.07 8.7-12.8 9 0 0 .6.84-1 .7 0 0zM316.17 130c-.1 5.9.54 5.28-5.93 5.4-5 .1 4.06-5.84 5.93-5.4-.02 1.33-.6-.16 0 0zM305.44 221.67c6.25 6.67-6.14 8.24 0 0 .56.54-.35.47 0 0zM611.1 213.7c2.12 1.08 2.17 6.13-1.43 8.53-2.97-5.3.83-5 1.42-8.53zM196.56 617.78c5.3 4-2.67 2.5-5.06 2 3.6-3.16 9.76-9.12 5.06-2 .7.53.67-1.02 0 0zM181.37 491.16c4.8-6.22 1.54 3.24 8.32 1.05-2.4 8.5-3.2.14-8.33-1.04zM194.47 203.36c2.53 9.1-.16 9.68 0 0zM108 257.07c-1.25-.7-4.14-8.56-1.7-9.53q5.42 3.87 1.7 9.53c-4.3-2.35.46-1.93 0 0zM255.64 195.2c1.33-3.15.7-11.48 8.75-9.5 9.68-6.84-8.1 8.5-8.76 9.5zM437.44 624.06c-7.56 2.6-9.7-7.9 0 0-1.9.66-2.15-1.75 0 0zM423.35 590.1c16.37 3.38 3.6 1.9 0 0zM144.4 586.27c2.48 14.65-2.44 2.3 0 0 .24 1.36-3.22 3.03 0 0zM243.36 217.9a13.44 13.44 0 0 1-4.77 12q-2.16-14.3 4.76-12c-.1 5.64-.3-.06 0 0zM364.66 117.9c12.47-9.53 8.28 0 0 0 2.55-1.95 1.87 0 0 0zM168.47 601.82c2.7-5.93 12 12 0 0 .26-.57 1.9 1.9 0 0zM525.7 670.36c-1.1-4.63 11.3-11.2 0 0-.54-2.25.97-.97 0 0zM539.1 658c3.1.35 6.76 9.78 0 0 1.5.2 1.62 2.36 0 0zM447.56 524.66c5.44 2.66 4 13.2 0 0 1.64.8.8 2.6 0 0zM154.43 631c1.5 2.44 1.75 4.82 0 7.43-3.74-4.77-3.74-4.77 0-7.43zM253 602.4c-11.77-4.76 2.2-5.32 0 0-1.56-.63 1.68-4.06 0 0zM220.3 95.12c16.72-11.68 0 4.78 0 0 1.82-1.27 0 0 0 0zM156.36 576.4l-1.85 11.4c-.2 0-1.48-12.05 1.86-11.4-.62 3.8-.36-.08 0 0zM279.3 174.63c-1 1.3 10.27-2.77 0 0 2.7-3.5 3.04-.82 0 0zM342.44 210.05c-12.6 1.6-6.64.43 0 0zM470.67 558.36c1.54 1.07-4.4 11.73 0 0zM307.72 770.8c-.4-1.6-7.43 4.14 0 0 .28 1-1.97 1.1 0 0zM614.9 183.87c2.62-1.2 3.57-5.34 8-4.32-2.13 3.07-4.14 5.3-8 4.32zM229.34 600.35c-3.26-.7-3.63-3.34-5.1-5.86 5.64 1.86 6 2.28 5.1 5.85zM595 403.9c6.2 5-10.08 7.6 0 0 2.22 1.77-.88.67 0 0zM470.35 630.5c-7.74-7.2 7.58-7.46 0 0-1-.93 2.2-2.16 0 0zM151.47 597.08c-4.77 6.17-9.83-1.36 0 0-1.12 1.45-2.18-.3 0 0zM248.27 272.15c-1.86-1 11.28 1.7 9.44 2.08 2.36-.5-11.53 2.1-9.43-2.08 3.05 1.7-.14.27 0 0zM313.23 783c19.18-1-1.06 6 0 0 2.24-.1-.04.23 0 0zM304.16 789.7c2.7-12 10.44 0 0 0 .33-1.45 0 0 0 0zM549.76 702.45c1.82-23.9.6-.18 0 0zM222.53 746.5c9.7 2-3.35 6.95 0 0 1.3.27-.17.34 0 0zM169.62 193c2.15 8.1-2.54 9.9 0 0zM317 774.2l4.26 5.93c-4.2 1.52-4.54 1.08-4.26-5.92z"/><path d="M215.56 764.62c-1 2.77-8.8 1.8 0 0z" class="cls-1"/><path d="M504.46 420.86c4.3 2-.05 4.53 1 7.27-4.46-2.36-.4-5.03-1-7.27zM217.52 742.35c-.33-8.3 5.17-8.52 0 0-.12-3 1-1.65 0 0zM623.24 300.75c-11.5-.8-.63-7.1 0 0-1.8-.12-.13-1.36 0 0z"/><path d="M135.86 186.74c8.32-2.43-.6 7.4 0 0 1.25-.37 0-.13 0 0z" class="cls-1"/><path d="M150 320.44q5.6-2.84 10.3.48-13.7-4.58-10.3-.48zM269.2 593.8c.6-6.42 4.15-5.3 0 0 .15-1.55 1.44-1.8 0 0zM413.1 812.8c-3.52 1.24-4.72-7.36 0 0zM445 105c-10.5-11.58 10.4-5.1 0 0-.6-.7.27-.14 0 0zM632.34 821.7c-5.55 3.18-7.82-11.7 0 0-2.8 1.6-.46-.7 0 0zM144.25 328.64c-6-7.3-.44-7.8 0 0-.4-.5-.1-1.8 0 0zM624.27 270.68c-2.17-12.73 4.22-.9 0 0-.27-1.3 4.27-.92 0 0zM422.35 571.8l6.7 4.67c-3.97 1.53-4.9.9-6.7-4.66zM292.34 783.4c2.8-4.36-12.32-3.28 3.8-4.95 0 5.2-2.75-.04-3.8 4.94zM196.52 624c2-2.5 5.5-1.63 7.9-3.45.52 2.2-2.16 3.45-7.9 3.45zM185.7 209.54c2.05 4-10.47 16.57 0 0 .7 1.38-1.7 2.6 0 0zM463.88 429.7c0-15.7 3.4.77 0 0 0-1.8.38.1 0 0zM627.63 367.3c.8 16.17-6.62-1.18 0 0 .1 1.8-.43-.07 0 0zM281.86 182.52c-7.6 7.24-5.77-4.3 0 0-1.13 1.08-1.32-1 0 0zM127.47 189.74c-1.48-.32-5.42 10 0 0 1.6.34-.66 1.2 0 0zM263.83 182.73c-.83.73.4.68 0 0z"/><path d="M253.72 769.28c1-1.25-8 0 0 0-.46.58.15 0 0 0z" class="cls-1"/><path d="M298.54 239.37c-6-14.05 5.06-1.4 0 0-.85-1.98.35-.1 0 0zM285.8 770.2c-6.4 9.8-1.73-4.56 0 0-.8 1.26-.02-.1 0 0zM285.8 770.2c-3.47-9.1 7 2.25 0 0-.02-.1.8.26 0 0zM226.36 753.87c-9.1 6-2.08-4.34 0 0-1.17.76-.18-.4 0 0zM411.47 602.34l-10.74-1.92c.5-2.18 9.12 1.58 10.74 1.92zM264.32 761.5c0 5.37-7.94 1.35 0 0 0 1.6-1.32.23 0 0zM294.9 609.64c.8 5.35-7.57 13.27 0 0 .3 2.04-1.42 2.48 0 0zM259.48 760.8c-3.1-4.54-2.87-7.15 0 0zM390.9 807.16c5.55.76 7.48 4.95 0 0zM484 450.8c4.2-15.2 3.15.8 0 0 .75-2.62.4.1 0 0zM618.5 267c3 1 3.77 2.4 2.8 5-1.3-1.48-3.9-1.94-2.8-5zM296.1 649.15c1.52-.72 4.74 7.84 0 0zM556.9 659.76c1.06 1.76-6.77 10.8 0 0zM364.13 605.9l5.35-2.2c.6 3.06-.62 3.74-5.35 2.2zM323.1 583.36c21.27 3.22-.3 1.12 0 0 2.8.42-.1.34 0 0zM229.54 678c-4.47 10.06-5.73-.7 0 0-.95 2.1-1.25-.2 0 0zM607.23 792.4c-12.33-6.57 4.8-5.86 0 0-.6-.32.2-.24 0 0zM310.76 789.8c6.15-8.5 5.57 6 0 0 .7-.97.24.3 0 0zM377.94 209.88c1.8-.2 2 9 0 0zM390.9 807.16c-4.45 0 .06.5 0 0zM206.57 625.67c3.94 1.7 0 17.58 0 0 3.53 1.53 0 2.73 0 0zM242.5 270.92c2.08-1.34 23.27-1.54 0 0 3.08-2 3.2-.2 0 0zM162.7 633.9c-4.26 9.9-7.35-2.13 0 0-.62 1.44-.35-.1 0 0zM409.7 618.42c1.28-4.76 10-5 0 0zM216.47 603.26c5.64 11.92-4.56 3.35 0 0 .76 1.6-.26.2 0 0zM118.08 220c-1.38 1.55-2.83-13.83 0 0zM245.3 754.72c0-6.36 5.4-3.22 0 0 0-1.72 1.08-.65 0 0zM113.25 244.1c-8.57 17-.83-.4 0 0-1.06 2.1-.25-.1 0 0zM305.08 67c-4.32-12.12 6.9-.56 0 0-.5-1.38.33 0 0 0zM286.73 288c0-8.1 10.07-1.43 0 0zM326.27 787.7c.56-.17-6.1-5.9 0 0-.75.24-.27-.2 0 0zM116.94 131.63c-2.82-2 .88-15.1 0 0-3.94-2.76.15-2.63 0 0zM225.14 763.94c-1.8 0-1.5-9 0 0zM352.33 206.28c3.37-3.93 12.92-2.66 0 0 1.36-1.58 2.67-.55 0 0zM188.1 203.28c1.17 2.57 1.7 4.9-2.33 6.25zM255.56 195.1c-6.24 13-1.12 2.38 0 0zM278.73 719.83c2.7 2.4 2.7 2.4-1.8 5.94zM180.12 628.34c-4.12-2.34-4.12-2.34-2.5-6.72zM279.6 619.3c2.58-8.48 5 2.48 0 0 .34-1.1.54.25 0 0zM499.12 696.17c-3.33-1.5-3.85-2.9-2.4-6.77zM595.28 593.44c-5.47 9.53-3-4 0 0-.72 1.24-.28-.38 0 0zM338.18 787.08c-7.24 4.25-3-2.12 0 0-1.25.73-.86-.6 0 0zM614.6 544c6.42-7.92 3.6.5 0 0 1.4-1.7 1.2.2 0 0zM242.72 745.54c-8.93 2.3-2.18-4.15 0 0-1.28.33-.12-.22 0 0zM404.3 220.78c12.73 1.94-1.72 9.7 0 0 .7.1-.03.22 0 0zM412.9 222.4c9.18 10-7 2.28 0 0 .82.9-.27.1 0 0zM304.16 789.7c-5.6 0-3.55-8.67 0 0zM224 744.45c-11.25-.88.48-2.48 0 0-1.48-.1.07-.3 0 0zM178.42 164.37c5.15-5.8 5.46-3.82 0 0zM590.05 210.06c3.86.2 5.85 2 5.5 4.83zM211.24 203c8.37-14.6 2.13 1.8 0 0 1.05-1.88.28.2 0 0zM433.13 279.24c3.3 1.9-2 6.75 0 0zM234 622.37c14.86 1.57 2 5 0 0 2.63.28 1.37 3.5 0 0zM450.94 384.56c8.9-13.27-2.1.38 0 0 1.2-1.8 3.67-.68 0 0zM530.73 656.36c3.1 6.55-1.07 6.83 0 0zM273.68 267c-.3 2.54-3.2 2.83-6.5.72zM171.7 192.28c6.57 1.26-9.5.6 0 0zM342.37 210.13c4.17-1.1 7.07 2.72 0 0zM630.9 190.36c-3-2-3.1-3.5-.7-5.85zM439.48 552.44c.82 3-1 4.38-3.9 3.7zM502.2 406.44c-1.9 2.6-4.16 1.15-6.56.7 2.1-2.94 4.52.44 6.55-.7zM381.9 579.9c-11.28 5.45-1.66-3.52 0 0-1.5.72-.12-.3 0 0zM272.5 758.8c-1.75 0-.82 4.26-3.82 2.44.32-2.15 1.32-3.4 3.83-2.44zM478 670.7c-6.7 11-1.8 2.3 0 0zM305.25 793.06c-.66-1.8 6.52-6.1 0 0zM351.1 791.27c4.67 3.52-7.48 6.3 0 0 .65.5-1.2 1.02 0 0zM221.6 189.7c7.14-12.53 3.48 2 0 0 .92-1.6.32.2 0 0zM322.44 177.67c-5 8.22-4.2 1.06 0 0-1.08 1.8-1.44.33 0 0zM413 812.9c6.2-5 4.47 0 0 0zM230.84 320.1c3.36.45 4.38 2 3.62 4.53zM246.63 152.46c-8.4 11.63-.8-.63 0 0-1 1.4-.23-.18 0 0zM326.4 129.8c6.46-4.3 3.12 5.75 0 0 .2-.1.4.72 0 0zM261.22 279c12.22-1.25-1.76 3.88 0 0 1.2-.12-.16.35 0 0zM253 137.1l-4.38 4c-1.1-1.87.72-3.87 4.38-4zM156.65 136.28c-3.65 10.92-3.75-1.38 0 0-.46 1.36-.34-.13 0 0zM590.43 586.3c9 1.08-.85 3.82 0 0 1.2.15-.1.43 0 0zM409.24 613.4c-2.42-3.63 6.9-6.6 0 0-.76-1.16 1.38-1.33 0 0zM509.15 405.7c.73-2.4 2-3.83 4.87-2.58zM267.3 273.1l-7.7.5c2.3-2.03 2.3-2.03 7.7-.5zM238 599.9c-1.7 1.78-3.4 3.2-6.08.48zM167.36 205.46c-4.05 6.78-4.8-2.22 0 0-.7 1.2-1.02-.46 0 0zM247 205.88c8.7-9.18 2.33 2.27 0 0 1.24-1.26.43.37 0 0zM546.2 679.87c0 6.2-4.37 6.26 0 0 0 1.86-1.08 1.56 0 0zM386 803.23c11.58-2.2.63 2.57 0 0 1.56-.3.07.43 0 0zM496 439c2.56-8.12 1.58-2.5 0 0zM164.36 102.43c-1.26-11.1 2.28 1.94 0 0-.16-1.43.22.18 0 0zM506.1 741.55l-1.82-4.55c3.05 1.57 3.53 2.86 1.8 4.55zM149 569.22c-2.52 9.85-3.64-.84 0 0-.35 1.37-.57-.14 0 0zM555 689.44c-1.6-.4-1.8-10.76 0 0-3.6-.93-.25-1.67 0 0zM484 501.57c-1.5 4.76-6.3 4.5 0 0-.47 1.43-1.23.86 0 0zM617.8 190.68c-.22-3 5.06-6.12 0 0zM495.6 482.25c2.16 14.3-10.36-8.9 0 0 .4 2.57-.3-.25 0 0zM230.36 175.32c6-.9-1.42 6.44 0 0 .85-.13-.22 1 0 0zM149.9 320.37c-.83 1.42-9.25 0 0 0z"/><path d="M499.52 182.86c-2.63-8.43-13-5.38-8.46-11.25-4.25.7-16.28 3.46-16.44 2.15q6.47-1.17 1.3 1.94a10.28 10.28 0 0 0-8.48-3.32q-3.67 3.3 1.84 3.7a12.15 12.15 0 0 0-4.83 2.6c.9-14.36-20.6.52-37.64-7 10.33-8.3 21.07-8 28.6-9.53 1.2 3.77 3 5.92 2.16 6.56 3.57-.8 15.38-1.54 2.14-3 7.65-5.1 45.15 7.42 32.92-5.26-2.87 6.28-36-5.12-42.36-3.66-1.24-4.33 15-14.22 16.45-4 7-.45-.54-6.65-.65-7.63q9.37 0 5.7 7.7c.88-.04 31.88-7 35.27-8.35-8.6-2.45-21.62-4.87-28.32-8.54-2.68-9.4 23.57-1 24 3 6-1.5-5.15-10.1-2.53-13.35-1.25-2 58.38 4 68.57 7.43-8.78 14.54-28.3-1.48-35.72.63 7.12 4.55.53 1-1.16 6.58 10.33-2 6.43 2.48 13 .73-.44 6.26-1.2 4.4 6.3 8.84-21.3 14.82.18-1.4-10.82 6.5q-1.72-6.43-5.44.04c.75-6.78-14.4-7.93-18.7-3.14 4.58-1.77 1.3 4.48 6.84 2.55-4.8 8.54-3.28-2.64-8.34.63q1.57 6.12 6.35 2.84c-8 8.65-7.45-5.7-17.58 1.27a5 5 0 0 0 .76 4c4.62.3 12 1.92 17.08 1.15-2.26-9.2 51.64-4.7 56.4 7.2-7.5 4.83-10.67-2.5-15.8-1.57-2.6 24.17-25.7-16.55-25.12 1.95-11.9-1.87-6.76-8.7-16.3 2-.83-.52-19-17.1-24.57-.56-.56-.52 12.46 4.07 7.64-2.14 6.18 1.1 9.18 9 10.35 8.78q-2.15-2-5.42 1.82c2.26 3.74 4.87.35 5.7 2-11.5 10-15.53-1.9-26.6.86-2.47-10.1 16.3 1.2 21.66-5.6q-5.6-2.34-9.73 2.48c-.3-1.05 2.28-.37.02 0zm3.55-29.3q12.7-.1 2.65-1.8c-7.3 5.5-1.95-.08-2.65 1.8 2.3-.24-1 2.63 0 0zm19.58-19.76c.6-.07-12.4-6.9-7 .67q7.5-3.52 11 3.62c.4-3.7 1.44-8.64-4-4.3-3.8.44.35-.3 0 0zm-30.37 20.87c-7 10.47 6.54 4 0 0-1.28 1.95 1.6 1 0 0zm-4.64-1.38c-16.35 0-5.1 4 0 0-3.1 0-1.55 1.2 0 0zm27.43-5.3c-1.17-.7-7.55 14.36 0 0-.33-.17-.96 1.84 0 0zm17.1 15c-8 9.53.3 4.26 0 0-1.17 1.42.13 2 0 0zm-20.24-7.76c-8 10.5 2.3 1.52 0 0-1.2 1.6.16.14 0 .03zm-71.13 13.9c-9.38-2.54-2.06 5 0 0-1.24-.3-.3.74 0 .03zm41.75-37.34c-.43 5.6 6.16 3.33 0 0-.07 1.02 1.16.65 0 .03zm25-2.36l5.76-1.13c-2.05-1.43-4.05-2.3-5.72 1.17zM379 162.3c-3 3-5.4-1.76-12.95 4.4q-.82-5.26 5.1-5.37c-5.42-5.8-5.42 4.34-9.12-7.32-12.07 5-6.16 12.16-20.55 6.37 2-.84 5-9.56 2.33-11.07-3.48 6.77 0 1-4.56 7.3q4.52-3.67 2.1 1.24c-6.26-2.8-6.15 1.26-14.2 2.93 6.15-3.06-21.28-4.38-7.83-3.08 1.88 5.27-11.2 18.8-16.68 15.77-1.06-19.83 24.44-16.58 32.6-33.4.83.42 14.82 11.86 16 1.78q-2.3 1.62 5.15 1.35c-.65.4-5 6.44-5.23 5.06 7.78 1.35 11.14-5.65 16.8-4.72 8.54 1.4-7.18 7.87-1.9 14 3.7 4.3 40.92-26.74 50-26.12-2.2 4.18 27.3 1.3 39.23 9.83-10.57 1.2-18.87.38-30.2 3.63-.26-1.14 6.92-3.3-3.24-2.72 0 9.92 9.3 1.42 15.5 1.9a37.23 37.23 0 0 1-.66 9.3c-12.5 1.45-40.92 10.15-57.78 9 3.17-1.2 21.78-12.43 21.8-18.2-3.36 2.44-32.1 12.7-21.7 18.1-.48.5-1.18-.57 0 .03zM321.06 151c-7.07 7.45 3.85 4.36 0 0-1.27 1.37 1 1.15 0 0zm8.48 4.56c9.87-8.75-.24-4.72 0 0 1.6-1.4-.13-2.6 0 .02zM603.46 306.18c-.42 12.35-3.43 26 10.55 23.36-3.7-14.84-12.07 31.16-4 24.5-13 10.7-24.8 8.06-40.78 4 2.54-10.86-1.26 14.95-1.2 9.7 4.62 3.38 5.52-1.4 6.67 7.5-6-3.67-.5 3.3-4.73 4.14-1.9-5.5-8-12.32-2.2-14.2.46.17-17.17-7.8-11.06-11.22 6.88-3.84 11.54-2.38 15.15 3.44q-1.3-8.12 6.8-7.56c-.57-5.34-14.72-1.28-15.6-1.2 4-6.84 7.52-7.1 15.27-6-1.65-2.05-4-1.54-5.25-4 3.3-1.4 9.9.36 8.42 4.9 3.13.36 12.18-9 17.38-7-.58-4.44-13.26-9.18-15.93-9.18 2.58-10.93 13.92-19.6 11.76.43 5.23-1.9 4-17.63 8.74-21.62-.1 3.4-1.2 1.03.02 0zm1 42.73c-.83 4.96 7.88 3.7 0 0-.15.8 1.54.75-.02 0zM553.7 280.44c10.38-2.68 5.63-11.63 8.6-11.83 2.14 10.24 10.44-18.66 16.6-15.67 4 2 2.43 10.58 7.3 10.68 29.36 14.72-13.9 49.73-17.56 36.2a11.37 11.37 0 0 1 10.94-.35c-7.8-38.87-7.14 1.73-5.38-7.77-5.45-1.24-3.23 2.5-8.86.76a175.6 175.6 0 0 0 17.32-15.5q-5.93 2.48-2.54-1.87c-2.2.66-44.47 29.9-38.14 8.72 7.25 2.4 8.87 8.76 20.65-.44.22.15-9.14-.15-8.93-2.9 2.38-.64 0 .28 0-.02zm27 17.33c6.4-8.6-1.12-3.8 0 0 1.12-1.44-.26-1.08.05 0zM526.17 257.6c3.5-.17 10.56 4.8 14.93 5.1-9.12 13.05-61.54 10.4-69.27 9.24 9.75-16.3 29.84-1.87 40.72-8.8q-10.5-.55.8-2.8-2.33 7.9 4.8 6.64c-.6-2 3.63-8.32 8-10a32.5 32.5 0 0 1-1.8 6.16c4.7 5.17 2.34-4.64 1.82-5.57 1.54-.05.53.97 0 .02zm-25.7 8.8c3.37 1.12 6.27.3 7.3-2zM463.84 253.24c-9.28 5.88 19.44-.2 11.37 5.9 1.54-.1 14.86-3.16 7.37-5.66A24.75 24.75 0 0 1 493 256.3c-.34 16.65-36.52 5.75-36.64 7 .54-5.84 1.17-21 7.5-10.04-.64.38-.94-1.6-.02-.02zM532.65 345.82c-5.16.72-29-.3-12.7-3.3-1.9-.65-8.1-.77-8.27-2.45 14.4-1.6 24.37-6.48 37.5.3-4.35 7.2-18.16.53-18.34 1.64-.48 2.95 2.1 12 1.82 3.82-1.66.24 0 .3 0 0zM489.06 224.45q-.76 7.33 10.35 2.22c.3 9.64-22.05 2.48-24.52-1.95-6 0 12.53.78 7.88-2.52-5.15-3.65-8.9 1.47-16.44-5 12.35.85 11.42 1.6 24 5-6.18 2.65-6 6.82-1.23 2.24 0 1.13-.9.83-.04 0zM443.06 300.44c9.6 2.1 18.93 3.64 28.42 6.1-13.35 13.64-25.48-3.07-28.42-6.1zM400 240.88c0-6.18 6.35-4.9.3 2.95 3.73-.27 8.08 2.78 9.8 6.2-6.45 1.46-15.4-11.36-21.6-6.72 1.43-3.86 6.4-11.6 6.37-11.58l5.14 9.16c0-1.4-3.75-2.24 0 0zM493.6 304.26c-.76 2.9-10.22 5.94-12.4 5.78 7.53-11.9-.94.24-3.76-4.5 5.9-4 13-1.28 16.15-1.28-.2.74 0 0 0 0zM609.47 346.3c10.5-15.64 10.77 2 2.47 6.36-.1-11.1 10.4-11.24-2.47-6.35 2.05-3.04 2.3-.86 0 0zM526.84 188c-.88.68-6.72 7.82-5.9 7.42a8.8 8.8 0 0 0-8.3-4.48c5.7-5.64 6.7-1.18 14.2-2.94zM350.4 135.08c-6 3.63.28 7.26-7.5 8.4a6.47 6.47 0 0 1-3.12-3.32c2.94-4.74 8.08-2.6 10.6-5.08zM487.3 321.1c4.73 8.66-7.65-3-8.1-5 4.55 1.43 5.27 1.6 7.87-2.17 1.22 4.4-1.3 4.35.24 7.16zM300.44 159.85c-.73-4.5.77-11 4.26-14.1-.06-.33 1.85 11.52 2.52 8.2-9.12.5-1.68 4.8-6.78 5.9-.17-1.08.3-.07 0 0zM500.47 227.57c8.76-7.6 3.7 3 0 0 .9-.8 4.76 3.92 0 0zM453.08 258.4c5.37 9.45-12.54-6-10.57-4.17 7.88-.93 1 1.94 8.56 3.73.6-1.85-1.74-1.08-1.13-2.63q11.2 1.6 3.15 3.06c.42.73 1-.3 0 0zM559.8 158.95c2.73-7.92-8.86.23 3.13-8 1.82 4.3 6.26 1.1 5.46 6.8-2.47-1-9.8.26-8.6 1.2.35-1.04.2.17 0 0zM375.42 144.35q-9.55 0 3.26-11.83c-3.8 5.8 1.44 5.3-3.26 11.83-.5-.07 1.34-1.87 0 0zM369.5 136.86c-3.65-5.9-14.43 7.63-1.5-6.4 6.3 2.8 7.76 2.75 1.5 6.4-1.96-3.17 1.15-.67 0 0zM526.83 188.07c10.1-4.1-13.63-5.4 8.75-3.22-.46 2-8.75 10-8.75 3.22.98-.4 0 0 0 0zM549.6 345.8a12.3 12.3 0 0 1 3.18-9.8q4.32 7.3-3.2 9.8c2.1-2.8 2.74.9 0 0zM566.27 176.28c9.9 3.1 3.67 5.23 0 0zM562 341.4c-.18 4-.18 4-6.77 3.83-.96-6.34 3.33-4.35 6.77-3.83zM517.36 330.34q10.63-1.1-.3 3.42c-.14-.8-5.55-11.38.3-3.42 2.92-3.05-.7-.94 0 0zM455.78 267.18c-4.3 2.7-10.8-12.2 0 0-2.95 1.82-1.78-1.97 0 0zM513.7 351c3.24-6.4 18.4 6.43 0 0 1.7-3.32 2.5.92 0 0zM574.54 377.2c16-7.3-1.5 10.27 0 0 1.58-.73-.4 2.7 0 0zM456.8 135.32c1.1.66 10.73 4.25 7 7.12q-11.64-2.4-7-7.12c2.37 1.42-.3.42 0 0zM493.6 304.26c11.48 3.94 4.36 4.2 0 0zM517.84 226.1c-16.44 12.38-1.7-2.6 0 0-.95.72-.22-.33 0 0zM538.8 305.7c7.9-4.88-6.9.77 8.6-1.23q-3.33 6.5-8.6 1.24c1.65-1.02 1.9.97 0 0zM513.68 306.93q1.85-9.26 12.88-1.63-17.28-3.4-12.88 1.63zM429.4 185.65c-3-9.6-4.64.46-7.26-4 2.26-3.36 11-3.14 7.25 4-1.13-3.65 1.82-3.5 0 0zM560.74 150c4.92-15.1-5.15 3.48 0 0 .4-1.25 3.26-2.23 0 0zM571.1 309.8c.53-6.42-15.87 9.94 0 0-.23 2.83-1.8 1.13 0 0zM420.64 112.88c-11.23 4.7-5.9-6.22 0 0-2.05.86-1.64-1.75 0 0zM390.3 120.9c16.5-3.48.26 5.2 0 0 2.38-.5.04.6 0 0zM449.2 150.8c-5.58 6.07-7.62-2.13 0 0-1.5 1.6-1.9-.54 0 0zM343.26 162.56c-1.55 9.43-13.32-6 0 0-.5 2.95-1.82-.82 0 0zM527.3 305.37c1-4.88 17-4.84 0 0 .42-2 3-.85 0 0zM498.9 334.47c-13 5.95-1.85-7.42 0 0-1.52.7-.13-.47 0 0zM485.12 176.5c-7.7 17.2-5-2.5 0 0-.98 2.18-.2-.1 0 0zM350.3 135.17c1.84 1 4.82 14.37 0 0zM298.55 156.32c.07 1.3-9 7.42 0 0 .16 3.17-1.2 1 0 0zM510.44 347.5c.24 0-14.34-.84 0 0zM492 130.93c-.47-3.37 3-7.38 0 0-.23-1.75 1.94-4.8 0 0zM448.18 250.33c10.53-5 4.87 10.53 0 0 2.33-1.1.47 1.02 0 0zM308.82 147.4c10.7-8.46 3.18 4.25 0 0 1.54-1.2 2.6 3.47 0 0zM500.64 330.78c5.18 7.47 0 10.57 0 0 1.67 2.4 0 3.08 0 0zM465.47 242.26c25.9 3.16-.64 2.27 0 0 3.22.4-.05.18 0 0zM507.78 250.25c-14.9 5.9-3.77-1.47 0 0-2.1.83-2.3-.9 0 0zM560.65 312.6c3.08 1.37-.15 13.94 0 0 3.6 1.6-.06 5.5 0 0zM388.77 247.18c2.8-1 12.33 9.32 0 0zM418.36 193.48c8.7-9.77 4.4 5 0 0 1.07-1.2.18.2 0 0zM384.76 124.46c-8.83 1.6-4.3-4.28 0 0-1.76.32-.94-.94 0 0zM492.92 346.82c3.57 7.7-5.76 4.16 0 0 1.72 3.72-1.1.8 0 0zM498.26 236.1c-.7-1.48 6.66-7.08 0 0-.38-.78 1.5-1.6 0 0zM530.94 282.7c-5.28-.3-2.64-9.25 0 0-1.1-.08-.48-1.7 0 0zM514.5 255.35c-3.6 5.5-8.5 2.16 0 0-1 1.5-1.77.45 0 0zM375.16 129.8c-1.34-.44.06-.6 0 0 .5.2.1-.88 0 0zM409.94 117.75c0-12.34 3.57 2.14 0 0 0-1.75.24.15 0 0zM447.45 160.55c13.54.76-2.5 4.84 0 0 1.45.1-.12.23 0 0zM573 235.92c10.82-1.9 1.9 2.75 0 0 1.85-.34 1.5 2.23 0 0zM458.68 322.83c14-5.45 0 4.38 0 0 1.56-.6 0 .35 0 0zM552.54 139.68c.05 4.36-2.9 4.6-5.55 5.18zM468.64 238c10-.72.36 4.5 0 0 1.16-.06.3 3.66 0 0zM550.68 159.8l3.36-4.68c1.57 3.6 1.57 3.6-3.36 4.68zM487.33 321.12c15.05-1.46 4.57.35 0 0zM513.9 181.33c-.34-1.1 9.45-2.27 0 0zM469.28 133.32c-9.4-6 2.1-3 0 0-1.28-.84.28-.4 0 0zM476.26 243.07c1.72.17 3.27-2.4 4.95.42-1.68.62-3.2 3.72-4.94-.43zM595.77 373.37c11.4-1-.74 3.87 0 0 1.3-.1-.05.27 0 0zM514 336.13c-11.47-1 1.48 4.06 0 0-2.37-.2-.12-.4 0 0zM533.6 327.75c.92 3.57-10 1.9 0 0 .13.5-1.13.25 0 0zM459 273.56c2.24-7 7-1.13 0 0 .56-1.87 1.77-.3 0 0zM488.12 290c-6.57-4.44 0-6.6 0 0-1.64-1.07 0-2.12 0 0zM451 246.63c6.5-7.66 4.2 4.5 0 0 .8-.95.22.26 0 0zM343.48 127.28c-3.4 4.45-6.73-3.9 0 0-.54.72-1.27-.73 0 0zM430.3 219.52c3.26 0 6 5.56 0 0zM460 315.27c-.56-3 13-4.2 0 0-.12-.7 2-.64 0 0zM513.6 306.84c-1.2 3.57-7 2.8 0 0zM344.45 164.3c9.15 5.27 1.27 4.27 0 0 1.67.97.34 1.16 0 0zM446 251.52c-8.22-2.76-1.53-4.28 0 0-1.84-.6-.7-1.84 0 0zM574 309.7c6.82 3.78 0 4.7 0 0 1.52.86 0 1.4 0 0zM510.53 347.43c-2.25-10-.35-1.5 0 0zM515.13 173.36c-10.76 5.34-.74-1.3 0 0-1.43.7-.2-.36 0 0zM327.12 160.8c-1.2.9-2.07 6.6 0 0zM515.7 320.46c-3.13 2.74-3.48 2.7-4.86-.66zM543 261.32c-11.57 0-.1-1 0 0-1.56 0 0-.32 0 0zM549.2 271.55c6.6 3-3.8 4.3 0 0 .93.45-2.3 2.6 0 0zM440.64 188.8c8.67 2 2.2 3.72 0 0 1.55.37.6 1.05 0 0zM552.6 307.88c-1.7-9.9 2.64-.52 0 0-.26-1.45.27-.05 0 0zM459.23 268.18c.9-7 4.87-.9 0 0 .17-1.32.98-.18 0 0zM385.93 127.42c2.12 9-4.8.37 0 0 .28 1.2-.43.03 0 0zM490.53 234.26c-15.15.8 0-2.28 0 0-2 .1 0-.26 0 0zM566.74 573.42c0-12.5-4.85 11.44-6 7.48q7.4-4.55 7.5.55c-1.88.33-9.6 3.65-10.82 2.35 1-3.18 29.53-89.32 43.18-69.82q-3.92 14-10.4 3.3 5.27 2.85 4.48-1c-6.42.66-3.17 19.3-2.3 16.88 1.72 2.57-26.86 39.55-25.6 40.3-.04-.98.22.1-.04-.04zM561.7 488.32c-11.85 8.94-8.53 11.9-26.6 16.07q3.47-3.5-1.88-2.13c6.47-9.6 24-26.14 26.12-32.48 10.42 3.05 5.66 18.52 2.37 18.52-1.18.9 0 0 0 0zM545.74 469.78c6.25-4.63 25.5-30.2 31.8-28.65-8.33 9.6-40.36 34.72-42 42.32a5.42 5.42 0 0 0 6-1.56c.84 10.6-24.37 28-32.12 30.46 2.9-15.52 36.3-31.43 36.3-42.6 2.62-1.9.02.02.02.02zM501.65 541.74q-5.4-10.3-13.67.5c4.43-11.3 19.58-21.78 30.42-29.06 2.2 1.7-6.92 19.53-6.92 22.5-3.45-5.74-2.82 4.4-9.83 6-1.35-1.34 2.5-.52 0 .06zM548.7 503c-15.54 6.1-16.12 27-32 27.87q5.45 3.6-2.6 5.85c3.9-15.9 14.72-33.2 34.6-33.72-3.4 1.3-4.75.1 0 0zM561.75 488.38q7-7.3 9.42.95C570 494.63 543.1 538 534 533.77c7.93-7.16 28.37-33.2 20.84-36q4.68-4.34 4.9 3c6.85-6.4 1.9-10.25 2-12.4zM553.3 574.26c1.13 1.42 1.18 15.2.57 15.55-3.78-4.3-3.36 12-12.48 7.3a54.13 54.13 0 0 1 11.92-22.84c1.14 1.46-3.63 2.24 0 0zM525.66 609.68c-2.73-5.25 4.06-22 13.8-21.82-6 6.58-8.46 15.08-13.8 21.82-.52-1 1.34-1.68 0 0zM569.6 461.6c0-2.72 7.25-10.55 12.85-17.86C589.3 448 571 459.88 569.6 461.6c0 .07.92-1.15 0 0zM576 465.1c10.15-6.8-1.23 17.08-7.4 10.4q1.45-1.46 3.57.14c1.33-1.35 4.38-9.68 3.83-10.54 1.45-.94 1.6 2.44 0 0zM531.6 622.47c3.84-4.86.3-6.6 6.23-12.13q.46 16.47-6.23 12.13c.52-.65.3.17 0 0zM485.24 547.54c-5.25 2.18-1.55 8.06-9.1.92 3-2.8 5.83-3.23 9.1-.92-2.13.9-1.24-.9 0 0zM577.4 492.32q.85-11.66 7-7.16c-7.5 8.32 5.7 7.16-7 7.16 1.54-2.9 2.35 0 0 0zM479.53 608.33a31.7 31.7 0 0 0 5.72-10.56c1.32 3.06-2.15 10.56-5.72 10.56.8-.9.78 0 0 0zM524.5 491.37c-7-5.62 9.2-11 0 0-3.68-2.94 1.1-1.37 0 0zM487.43 641.76q.77 7.05-4.6 10c.1-.7 1.8-11.1 4.6-10-.7 2.73-.1-.04 0 0zM602 521.52c0 14.46-3.9 4.6 0 0 0 3.06-1.5 1.8 0 0zM588.18 475.3c11.38-3.22-.77 9 0 0 1.34-.37-.04.5 0 0zM478.06 620.06c12-5.42-.48 10.3 0 0 1.2-.54-.06.37 0 0zM470.76 558.28c-3.78 7-12.58 6.62 0 0-.42.72-2.32 1.2 0 0zM607.65 471.13c-7.5-1.8.76-7.92 0 0-1.5-.36.13-1.35 0 0zM540.5 628.15c-3.64.72-1.35-11.9 0 0-.78.16-.22-1.96 0 0zM584.82 489.66c15.5 2-.84 3.26 0 0 2.05.26-.12.42 0 0zM519.4 724.6c10.38 13.9-1.4 2.33 0 0 1.6 2.12-.4.7 0 0zM569.44 464.8c1 3.94-.17 5.7-3 5.1zM542.7 604c-1.5-.84-3.9-.7-3.45-3.53 3.85.25 4.35.75 3.45 3.53zM618.17 451.45c.6 1.8-7.47 10.36 0 0 1.07 3.28-1.3 1.78 0 0zM585.86 508.95c1.1-4.8 9.6-2.4 0 0 .36-1.57 2.14-.55 0 0zM599 479.78c9-5.1.77 1.12 0 0 1.26-.7.25.3 0 0zM629.87 539.44c-1.4 1-1.55 4.47-4.54 2.75 1.16-1.8 2.06-3.7 4.54-2.76zM137.26 672c-1.6-5.9-4.7-6.55-7-11.67 7.9-2.56 21.36 15.2 20.67 6.44 11.2 18.35 20.07 14.1 34.84 27.8-4.46 1.45-6.5 1.9-1.5 2.9-5.04 5.27-42.82-21.47-47-25.47zM213.05 708.6c10.33 5 2.33-.58 9.82-.86-.34 7.66-15.82 20.87-20.78 26.8-5.5-11.52 1.47-19.1 11-25.93 1.67.85-1.44 1-.05 0zM128.54 663.66c1.3 2.2 1 5.77 3.3 14.87-13-5.6-17.45-13.2-25.23-28.42 6.16-2.5 21 15 21.95 13.56.84 1.43-1.16 1.87 0 0zM104.18 613.54c2.1.2 3.72 7.6 1.35 11.45-2-1.08-17.24-32.35-13.87-33.57 7.77-2.82 15.08 35.08 12.52 22.1 1.03.1.17.88 0 0zM190.46 747.65c1.44-7.1 4.43-12.3 6.72-18.83 2.22 4.6-.2 18.83-6.72 18.83.33-1.65 0 0 0 0zM125.62 614.48c3.8-2.32 16-2.9 1 4.6-6.26-5 .54-16.87-1-4.6 1.6-.96.27-2.13 0 0zM107.5 625c-.65-10.48.66-5.7 8.42-1.9-.72 9.73-3.66-1.1-8.4 1.9zM241.4 773.1c-7 1.25-1.86-11.6-1.23-9.4 1.2-1.63 1.84 2.53 4.47 1.1.06.42-4.87 8-3.22 8.3-1.94.35.18.05 0 0zM118.1 642c-1.88 4.82-1.3 1.38-8.7-.95.16-.5.75-6.56-.12-5.8l8.82 6.75c-.28.68-3.2-2.48 0 0zM199.78 756c2.1-2.42-3.23 10.88-2.9 9.44-3.87-5-2.8-5.85 2.9-9.44.06 0-1.6 1.06 0 0zM228.94 773.43c5.37-4-.13-3.8 8-3.8-10 7.9-.42 0 .07 4.47-5.78 3.53-5.7-.68-8.06-.67zM153.4 644.1c5.22 5.18 2.95 12.63 0 0zM207.92 771.63c10.38 2 0 8.27 0 0 2.08.37 0 .06 0 0zM225.05 764c2.58-6.5 4.32 1.35 7.66-1.62 2.78 4.52-4.92 2.66-7.65 1.62.4-1 .46.2 0 0zM233.18 776.44c5.34 1.2 5.66 4.52 4 9.4-15.97-17.84 1.2-1.38-4-9.4zM163.13 655c-2.47 3.72-8.9-9.76 0 0-.34.53-1.47-1.6 0 0zM241.4 773.1c16.43 3.3-10.38 2.2 0 0 .2.05-1.86.4 0 0zM381 626.48c-4.94 2-7.68 3.28-9.6-.5q8-5 9.6.5c-.9.37-.16-.4 0 0zM219.77 775.25c2.63 1.15 1.8-2.48 0 0 1.16.5.68-.93 0 0zM257.33 771.56c11.68 6-14.4 0 0 0 .93.44 0 0 0 0zM266.63 788.92c-8.63-16.13 6.92-1.27 0 0-1-1.87.24-.05 0 0zM85.07 619.43c5.38 9.14-9.48 5.3 0 0 1.37 2.32-2.12 1.2 0 0zM147.85 648.57c6.74 13.47-6.3 0 0 0 .74 1.5 0 0 0 0zM346 623.68c4.68 4.2 4.57 7.7 0 0zM292.34 783.4c1.86-8.87 6.4 2.82 0 0 .22-1.04.92.4 0 0zM279.94 784.58c-8.92 1.18-.8-7.48 0 0-.08 0-.22-2.02 0 0zM190.46 747.65c-9.38 4.72-.93-.8 0 0zM135.07 561.94c1.4 5-4.4 3 0 0 .4 1.4-.23.16 0 0zM141.17 654l1.45-6.9c1.6 2.14 1.17 5-1.45 6.9zM177.87 763.93c14-2.27-.46 4.36 0 0 1.7-.27-.04.37 0 0zM118.17 604.62c-7.4-12 5.6 1.34 0 0-.67-1.08.3.07 0 0zM128 553.36c2.8 4.7-5.45 7.38 0 0 .87 1.4-1.4 1.9 0 0zM172.7 670.28l-5.25-2c2.18-2.66 2.7-2.47 5.24 2zM107.5 625c15.52 7.06-5.8 0 0 0 1.38.63 0 0 0 0zM208.1 759.8c2.27 1.9.74 16.7 0 0zM228.94 773.43c-5.25-2.63 0-3.38 0 0zM194.7 754.1c1.48 3.27-4.8 6.67 0 0zM180.92 761.13c4.4-4.64-.28-.08 0 0 1.42-1.5.35.1 0 0z" class="cls-1"/><path d="M104.18 613.54c.7 3.6-3.4 5 0 0z"/><path d="M347.8 657.08c6.5-2.2 3.1 1.18 0 0zM103.57 588.36c-2.66-11.82 3-.78 0 0-.37-1.65.55-.14 0 0z" class="cls-1"/><path d="M200.63 761.22c-1.5-4.15-3-8.94 0 0-.43-1.22-.04-.12 0 0z"/><path d="M305.65 666.86c-9-1.35.48-3.5 0 0-1.26-.2.07-.53 0 0zM407.78 623.68c-1.17 3.7-1.67 3.94-4.82 2zM137.2 671.95c-.76.85-10.65 0 0 0-.5.56 0 0 0 0zM238.63 776.57c2 1.32 7.64 11.3 0 0zM259.26 94.2c.8-7.56 37.08-25.76 40.6-16.35-.07-.16-10.28 11.18-11 12q1.3 4 7.37.76c1.77 5.7-16.1 5.06-17.23 6.4q1.34 2 2.94-1.56c-2.26-1.57-26.36 22.47-25.9 21.73-1.45-11.82-10.07 7.2-9.53 6.75-7.9-7.45-14.88 5.38-22.16 2.24 7.1-8.17 28.72-22.4 45-35.1-.82-1.26-8.24 2.48-10.08 3.14zM198 161.15c-3.24-.33.24-10.54 1.73-10.6a40.14 40.14 0 0 1-1.06 4.95c9.6-3.38 26.44-37.58 40.35-25.13-.93 4.1-33.92 25.85-41.02 30.78zM303.2 88.85c3.17-13.46 9.42-6.25 15.74-9.5-2.56 5.27-11.12 8.48-15.75 9.5 1.5-6.4 3.3-.74 0 0zM259.18 94.12a19.26 19.26 0 0 1-9.75 8.4c-.1-4.52 7.34-6.42 9.75-8.4zM236.18 126.17c11.1-8.25 2 4.62 0 0 1.35-1 .1.2 0 0zM329.2 69.82c6.53-3.64 6.5 9.48 0 0 2.33-1.3 1.6 2.33 0 0zM299.48 89.92c-1.54-2.94-.2-5.08 3.23-4.94zM351.18 74.72c-1 3-2.4 2.66-4 .87.5-3.5 2.5-.76 4-.88zM308.24 72.52c2.8-3.32 7.5 3.37 0 0 .88-1.04 1.4.63 0 0zM79.1 404.85c-7.1 2.76-18.35-6.45-12.8-14.73l12.8 14.73c-.8.3-5.93-3.85 0 0zM87.15 407.76c-4.3-4.48-23.8-17.35-15.87-24.13-.5 6.48 17.1 23.2 15.87 24.13-1.8-1.87.14-.1 0 0zM181 117.56c-4 7.58 2.42-3.54 4.12-5.4 2.58 3.95 2.72 1.28 4 3.2-10.67 9.28-4.24 3.5-8.08 2.2-.53 1 .2.07-.04 0zM192.17 103.46c14.53-1.95-4.1 8.6-3.2 9.3q-7.4-2.3 3.2-9.3c1.4-.2.6 4.15 0 0zM175.18 133.36c-.2-13.52 3-4.72 0 0-.05-3.2.74-1.15 0 0zM205.82 101c-1.4 9.7-4.8.68 0 0-.2 1.28-2 .25 0 0zM155.9 165.06c5.7-16.47 2.36.75 0 0 .77-2.23.4.12 0 0zM168.05 142.65c-2.87-6 2.78-7.27 0 0-.87-1.83.78-2.02 0 0zM495.77 449.43q7.55-.36 8.36 6.6c-.65 4.13-12.1 2.34-8.36-6.6 2.3.67-.66 1.57 0 0zM428.78 83.42c-3.67 4.23-8.07-2.34 0 0-.84.97-2.1-.6 0 0zM603.8 240.1c3.42-.83 7 9 0 0 .88-.22 1.3 1.67 0 0zM607.83 248.14c-1-.84 8-6.36 0 0zM309.18 299.2c.28-5.33-.35-7.94 0 0zM152.74 487.48c-11.5 1.34 0-2.1 0 0-.85.1 0 0 0 0z" class="cls-1"/><path d="M492.28 154.67c6.54 4-7 10.47 0 0 1.6 1-1.28 1.95 0 0zM499.52 182.86q4.14-4.82 9.73-2.48c-3.8 4.82-4.9 2.1-9.73 2.48zM522.6 133.76c-1.13 2.17-15.43-3.86 0 0zM487.64 153.3c-5.1 4-16.35 0 0 0-1.55 1.2-3.1 0 0 0zM522.65 133.8c2-1.58 11.2 3.62 0 0zM503.14 153.64c7.1-9.83 0 6.1 0 0 .4-.56 0 0 0 0zM515.07 148c-7.55 14.36-1.17-.7 0 0-.96 1.84-.33-.17 0 0zM532.17 163c.3 4.26-8 9.53 0 0 .13 2-1.17 1.42 0 0zM521.05 159.22c-3.5 1.05-11.67-4.6 0 0zM511.93 155.27c2.3 1.52-8 10.5 0 0 .16.1-1.2 1.56 0 0zM503.07 153.56c-.6 1.6-8.1-.86 0 0zM440.8 169.17c-2.06 5-9.38-2.54 0 0-.3.7-1.24-.33 0 0zM482.55 131.83c6.16 3.33-.43 5.6 0 0 1.16.62-.07 1 0 0zM507.58 129.47c1.66-3.42 3.66-2.6 5.76-1.13zM379 162.3c-10.38-5.42 18.35-15.7 21.72-18.1-.04 7.05-18.15 15.8-21.72 18.1zM321.06 151c3.85 4.36-7.07 7.45 0 0 1 1.15-1.27 1.37 0 0zM343.78 154.55c.47-8.6.28-1.64 0 0zM329.54 155.58c-.24-4.72 9.87-8.75 0 0-.13-2.63 1.6-1.4 0 0zM604.44 348.9c7.88 3.7-.83 4.96 0 0 1.56.75-.13.8 0 0zM580.75 297.76c-1.26-4.24 6.37-8.55 0 0-.3-1.07 1.07-1.43 0 0zM526.17 257.6c3 5.42 0 9.22 0 0zM500.48 266.4l7.28-2c-1.02 2.3-3.92 3.1-7.28 2z"/></g></g></svg>